<?xml version="1.0" standalone="no"?>
<!DOCTYPE svg PUBLIC "-//W3C//DTD SVG 20010904//EN"
 "http://www.w3.org/TR/2001/REC-SVG-20010904/DTD/svg10.dtd">
<svg version="1.0" xmlns="http://www.w3.org/2000/svg"
 width="2274.000000pt" height="2274.000000pt" viewBox="0 0 2274.000000 2274.000000"
 preserveAspectRatio="xMidYMid meet">
<metadata>
Created by potrace 1.14, written by Peter Selinger 2001-2017
</metadata>
<g transform="translate(0.000000,2274.000000) scale(0.100000,-0.100000)"
fill="#000000" stroke="none">
<path d="M10650 22733 c-30 -2 -201 -15 -380 -29 l-325 -25 -180 -64 c-146
-51 -206 -78 -320 -145 -77 -46 -216 -120 -310 -165 -218 -105 -376 -209 -480
-315 -45 -47 -123 -111 -179 -148 -57 -38 -149 -114 -218 -181 -124 -119 -349
-387 -373 -444 -7 -17 -22 -41 -32 -52 -35 -38 -91 -120 -98 -145 -4 -14 -19
-38 -34 -55 -32 -37 -51 -70 -51 -89 0 -8 -4 -16 -9 -18 -8 -3 -71 -178 -71
-199 0 -6 -12 -35 -26 -65 -56 -118 -65 -173 -71 -409 -5 -212 -4 -224 21
-328 23 -95 26 -130 26 -282 0 -174 20 -374 55 -534 11 -55 13 -76 4 -82 -8
-4 8 -33 47 -85 33 -44 66 -92 75 -109 45 -83 23 -128 -48 -99 -35 15 -104 62
-128 88 -39 42 -127 60 -139 29 -4 -9 -11 -98 -17 -197 -9 -173 -6 -242 12
-276 4 -8 14 -37 21 -64 13 -50 70 -112 91 -99 5 3 18 -5 29 -18 13 -16 21
-20 25 -11 7 17 23 5 23 -19 0 -12 7 -19 20 -19 11 0 20 -5 20 -12 0 -12 55
-142 71 -168 5 -8 20 -36 32 -61 29 -61 80 -97 141 -100 26 -2 52 -9 58 -17
15 -17 13 -252 -1 -301 -9 -29 -7 -40 11 -68 30 -50 22 -147 -18 -204 -31 -45
-77 -81 -108 -85 -12 -1 -24 -3 -28 -3 -17 -2 -7 -29 20 -54 38 -36 119 -41
162 -9 25 19 33 20 55 10 29 -13 42 -50 106 -311 35 -140 133 -447 161 -500 5
-9 22 -78 38 -153 25 -113 30 -158 31 -282 0 -81 5 -187 9 -237 29 -309 33
-421 22 -550 -7 -71 -14 -141 -17 -155 -2 -14 -8 -57 -14 -95 -5 -39 -15 -83
-20 -99 -6 -15 -11 -47 -11 -71 0 -24 -4 -47 -10 -50 -15 -9 -12 -25 5 -25 8
0 15 -5 15 -10 0 -6 11 -28 25 -50 14 -22 25 -47 25 -55 0 -9 4 -14 9 -11 5 4
20 -21 33 -54 23 -59 23 -60 63 -60 26 0 35 -3 27 -9 -10 -6 -9 -10 7 -14 17
-4 21 -13 21 -47 0 -34 3 -41 16 -36 18 7 44 -47 44 -94 0 -17 6 -39 13 -50
10 -17 9 -22 -2 -29 -14 -9 -2 -44 15 -42 5 1 12 -24 16 -56 5 -32 12 -69 17
-83 5 -16 4 -32 -3 -43 -9 -14 -7 -21 7 -31 9 -7 17 -21 17 -30 0 -9 5 -16 10
-16 6 0 10 -7 10 -16 0 -8 5 -12 10 -9 6 3 10 -1 10 -10 0 -8 12 -20 26 -25
14 -6 28 -19 31 -30 3 -11 10 -20 17 -20 15 -1 56 -36 56 -48 0 -5 9 -12 20
-15 16 -4 19 -11 15 -29 -8 -32 45 -142 55 -114 5 14 9 10 18 -20 16 -52 68
-109 86 -95 10 8 18 6 32 -10 10 -12 18 -23 17 -25 -2 -2 -3 -12 -3 -21 0 -13
2 -15 8 -5 7 10 15 8 35 -8 15 -12 31 -18 37 -15 5 3 10 -1 10 -9 0 -9 7 -16
15 -16 8 0 15 -4 15 -10 0 -5 18 -14 40 -20 36 -10 45 -19 41 -42 0 -5 14 -8
31 -8 25 0 29 -3 18 -10 -13 -9 -13 -11 0 -20 8 -5 30 -10 48 -10 29 0 37 -8
33 -32 0 -5 15 -8 35 -8 44 0 71 -22 49 -40 -14 -11 -19 -7 -16 13 0 4 -9 7
-21 7 -13 0 -38 9 -56 20 -18 11 -41 20 -52 20 -11 0 -20 3 -20 8 0 7 -61 38
-71 35 -3 -1 -18 9 -33 22 -15 13 -34 21 -43 18 -8 -3 -26 3 -41 14 -15 10
-43 27 -62 36 -19 10 -48 27 -65 37 -16 11 -39 24 -50 30 -11 6 -33 18 -50 28
-16 10 -55 32 -85 48 -30 16 -61 35 -68 41 -7 7 -17 13 -20 13 -4 0 -19 10
-33 23 -27 24 -55 43 -79 54 -8 4 -20 12 -26 17 -6 6 -39 31 -73 56 -111 82
-329 311 -366 386 -32 64 -47 152 -47 281 0 112 16 162 59 190 13 9 33 34 45
56 11 22 29 48 39 56 16 14 17 19 6 40 -14 27 -107 70 -152 71 -43 0 -66 -19
-144 -123 -68 -91 -80 -106 -173 -216 -26 -31 -57 -74 -68 -96 -20 -39 -31
-49 -140 -116 -57 -35 -93 -54 -170 -89 -52 -23 -75 -37 -104 -64 -31 -27
-124 -96 -131 -96 -4 0 -21 -11 -38 -24 -40 -30 -161 -90 -246 -123 -108 -41
-171 -54 -301 -63 -152 -10 -187 -23 -263 -101 -56 -57 -102 -87 -157 -104
-14 -4 -34 -15 -46 -24 -18 -14 -19 -19 -8 -29 30 -27 15 -39 -55 -46 -39 -3
-82 -11 -96 -16 -14 -6 -44 -10 -65 -10 -21 0 -59 -9 -85 -20 -49 -21 -69 -17
-104 18 -23 23 -152 7 -226 -28 -33 -16 -91 -38 -130 -49 -38 -12 -95 -35
-125 -52 -30 -18 -85 -48 -122 -68 -36 -20 -78 -46 -91 -57 -14 -12 -65 -36
-113 -53 -49 -17 -102 -36 -119 -42 -41 -15 -105 -32 -280 -74 -139 -34 -154
-39 -210 -83 -33 -25 -106 -81 -162 -123 -57 -43 -137 -108 -179 -146 -67 -60
-83 -81 -129 -173 -29 -58 -69 -157 -89 -221 -20 -64 -43 -122 -51 -129 -8 -7
-15 -16 -15 -21 0 -5 -41 -100 -91 -211 -50 -112 -94 -212 -98 -223 -4 -11
-24 -54 -43 -95 -27 -56 -50 -139 -92 -323 -46 -206 -60 -254 -86 -291 -20
-30 -40 -47 -60 -51 -27 -6 -30 -11 -30 -43 0 -20 9 -55 19 -78 43 -95 44
-128 6 -316 -54 -264 -84 -435 -91 -518 -6 -72 -8 -77 -54 -125 l-48 -50 -16
-200 c-9 -110 -16 -207 -16 -216 0 -20 -16 -27 -89 -43 l-53 -11 -28 -76 -28
-76 26 -128 25 -128 -31 -96 c-79 -245 -114 -464 -105 -657 7 -167 -9 -228
-100 -366 -61 -94 -64 -101 -75 -189 -11 -87 -10 -92 14 -147 14 -31 34 -95
45 -142 11 -47 47 -168 81 -270 55 -168 66 -192 119 -265 33 -44 82 -98 111
-120 51 -39 52 -43 110 -200 32 -88 98 -266 147 -395 49 -129 112 -316 140
-415 27 -99 63 -218 79 -265 28 -83 31 -87 111 -155 45 -38 123 -118 174 -177
100 -116 249 -247 367 -323 41 -26 129 -74 196 -105 66 -31 162 -85 213 -119
130 -88 338 -174 506 -210 115 -25 130 -30 127 -47 -13 -82 -21 -183 -21 -258
l-1 -90 54 -95 c53 -94 72 -114 207 -221 19 -15 19 -17 -9 -123 -24 -94 -31
-110 -60 -130 -17 -12 -53 -50 -79 -83 -27 -34 -73 -90 -104 -125 l-56 -64 -6
-84 -7 -85 38 -50 c31 -41 41 -66 51 -126 11 -65 24 -93 92 -206 l80 -131 -20
-85 c-11 -47 -39 -133 -61 -189 -50 -128 -89 -171 -171 -188 -48 -10 -57 -16
-80 -54 -50 -81 -52 -96 -30 -183 47 -189 81 -393 81 -495 l0 -102 -47 -86
c-26 -47 -66 -116 -89 -152 l-42 -67 -12 -150 c-7 -97 -21 -191 -39 -266 l-28
-116 2161 -2 c7656 -9 10706 -8 10706 4 0 7 -7 76 -15 153 -8 77 -15 193 -15
258 0 87 -6 147 -25 233 -21 95 -25 143 -25 272 -1 149 -8 319 -29 672 -14
227 -54 470 -96 579 -31 81 -36 104 -45 253 -6 89 -22 306 -35 480 -14 174
-25 323 -25 331 0 9 46 29 133 56 86 28 184 70 282 121 249 129 427 218 480
238 60 24 122 58 152 85 13 12 30 17 43 14 11 -3 22 -1 26 4 3 5 30 21 60 36
30 14 54 30 54 35 0 4 6 8 14 8 8 0 28 14 46 30 18 17 38 30 46 30 8 0 14 5
14 10 0 6 7 10 16 10 19 0 104 57 104 70 0 6 8 10 18 10 28 0 137 71 199 130
66 63 119 104 148 114 43 16 305 343 305 381 0 3 13 23 28 43 31 41 122 264
122 299 0 12 4 24 9 27 5 3 11 23 14 43 3 21 15 70 27 108 34 109 39 133 50
245 6 58 17 141 25 185 8 44 17 109 21 145 3 36 10 85 15 110 5 25 14 83 19
130 5 47 12 94 15 106 9 40 35 238 35 271 0 21 6 36 15 39 8 4 15 11 15 17 0
6 28 40 63 77 152 162 205 255 253 450 25 100 29 135 29 265 l0 150 -44 110
c-24 61 -52 135 -63 165 -11 30 -26 69 -33 85 -7 17 -20 57 -30 90 -9 33 -20
67 -24 75 -26 50 -46 140 -86 395 -14 88 -32 187 -41 220 -8 33 -19 86 -25
118 -5 32 -23 118 -39 190 -17 72 -35 161 -40 197 -10 73 -40 181 -102 375
-22 72 -56 184 -74 250 -60 223 -85 310 -120 410 -79 226 -214 636 -214 650 0
12 -78 219 -152 400 -33 82 -89 238 -99 275 -6 19 -13 86 -17 147 -9 127 -22
151 -94 180 -21 8 -36 18 -33 22 2 4 -5 15 -15 24 -18 15 -18 53 0 42 14 -9
22 33 11 54 -6 10 -33 45 -59 76 -27 31 -64 83 -82 114 -51 88 -130 224 -143
246 -6 11 -29 56 -51 100 -39 79 -70 127 -112 175 -12 14 -43 66 -69 115 -47
89 -107 165 -132 165 -7 0 -13 9 -13 20 0 11 -7 20 -15 20 -8 0 -15 4 -15 9 0
5 -11 12 -24 15 -24 6 -61 33 -95 69 -37 40 -50 53 -65 65 -22 18 -20 39 4 45
11 3 20 1 20 -4 0 -5 20 -18 44 -29 30 -13 57 -37 83 -72 38 -52 80 -79 66
-41 -12 32 -60 97 -110 148 -59 62 -162 155 -171 155 -4 1 -18 24 -32 51 -13
28 -40 64 -60 81 -33 27 -185 107 -213 112 -23 4 -162 59 -167 67 -8 11 -91
31 -107 25 -13 -5 -12 -8 1 -22 17 -17 22 -44 7 -44 -4 0 -20 9 -35 21 -20 16
-25 27 -21 47 3 15 2 21 -1 15 -9 -19 -34 -16 -34 5 0 19 -75 66 -90 57 -6 -3
-15 -3 -22 1 -7 4 -33 6 -59 5 -36 -2 -59 4 -93 23 -26 14 -48 25 -51 23 -2
-1 -14 6 -25 16 -11 9 -23 17 -27 17 -7 0 -33 23 -61 54 -9 10 -30 30 -46 45
-17 14 -48 42 -70 62 -23 20 -52 42 -65 49 -32 17 -179 19 -189 3 -4 -6 -26
-12 -48 -11 -32 0 -50 8 -85 39 -24 21 -57 44 -74 50 -16 6 -40 16 -53 22 -42
20 -126 11 -179 -18 -72 -40 -84 -53 -70 -76 17 -28 3 -33 -48 -16 -25 9 -53
13 -62 10 -12 -5 -14 -3 -8 7 6 10 2 11 -17 7 -26 -7 -88 17 -88 34 0 5 -18
21 -40 35 -35 24 -51 27 -133 28 -112 3 -159 22 -234 95 -28 28 -61 51 -72 51
-11 0 -22 4 -25 9 -3 5 -18 11 -33 14 -51 9 -217 57 -227 66 -12 10 -100 36
-190 58 -77 18 -187 79 -254 142 -68 62 -172 101 -314 116 -15 1 -89 64 -153
129 -12 12 -31 42 -44 69 -12 26 -28 47 -34 48 -29 3 -70 -4 -182 -31 -146
-34 -193 -44 -222 -44 -24 0 -123 60 -123 75 0 5 -6 9 -14 9 -26 0 -271 257
-271 284 0 6 -5 16 -11 21 -6 6 -17 30 -24 55 -7 25 -21 70 -30 100 -37 116
-51 217 -71 499 -11 174 -9 215 22 316 4 17 18 66 29 110 36 139 56 208 115
395 36 113 88 400 115 630 16 136 15 135 65 164 38 23 47 34 60 78 17 60 22
298 5 298 -15 0 -12 38 3 47 27 16 56 91 72 188 26 151 32 571 12 712 -9 59
-19 169 -22 243 -2 74 -9 153 -15 175 -5 22 -12 65 -15 95 -7 60 -43 133 -76
151 -12 6 -34 9 -49 7 -47 -7 -53 17 -55 212 -1 96 2 223 7 281 5 65 4 127 -2
158 -5 28 -6 61 -1 74 16 46 -26 489 -55 572 -7 22 -14 60 -14 85 0 31 -11 68
-34 116 -18 39 -37 81 -41 95 -4 13 -25 61 -46 105 -22 45 -39 87 -39 93 0 6
-4 11 -10 11 -5 0 -10 7 -10 15 0 39 -88 171 -194 291 -164 186 -240 255 -436
394 -96 69 -267 200 -380 293 -182 149 -222 176 -355 246 -285 150 -457 208
-805 271 -149 27 -146 26 -210 23z m-270 -488 c17 -9 30 -20 30 -25 0 -6 12
-16 28 -22 15 -6 41 -24 57 -39 30 -27 30 -27 87 -12 56 14 57 14 97 -12 37
-25 42 -26 56 -11 14 14 19 13 55 -5 22 -12 43 -25 46 -30 7 -11 75 -11 93 0
8 5 37 1 73 -10 58 -17 60 -17 91 1 77 46 106 59 112 50 10 -17 61 -11 79 9
13 14 34 20 82 23 35 2 64 1 64 -2 0 -3 24 -5 53 -6 28 0 88 -10 131 -22 44
-12 90 -22 102 -22 41 0 161 -59 280 -137 113 -76 284 -231 284 -260 0 -7 5
-13 10 -13 6 0 20 -9 32 -20 12 -11 27 -20 34 -20 6 0 22 -25 34 -55 12 -30
29 -55 36 -55 8 0 17 -13 21 -30 3 -16 9 -30 13 -30 4 0 15 -18 24 -40 9 -23
23 -43 31 -46 8 -4 15 -12 15 -18 0 -7 9 -22 20 -34 11 -12 27 -50 36 -84 9
-35 25 -77 35 -94 13 -22 17 -41 13 -63 -4 -18 -2 -31 3 -31 6 0 13 -19 16
-42 3 -24 8 -52 11 -63 2 -11 5 -25 5 -31 1 -5 9 -19 20 -30 10 -12 22 -44 26
-75 4 -30 11 -64 16 -76 5 -13 4 -25 -1 -28 -9 -5 5 -27 44 -68 13 -14 15 -22
7 -30 -16 -16 -14 -77 3 -77 10 0 12 -9 6 -40 -6 -35 -5 -40 11 -40 12 0 19
-7 19 -20 0 -11 -5 -20 -11 -20 -16 0 -41 -29 -34 -39 3 -5 -11 -15 -30 -22
-19 -7 -35 -17 -35 -22 0 -12 -20 -29 -51 -45 -14 -7 -30 -27 -36 -43 -6 -16
-17 -29 -25 -29 -8 0 -14 -10 -15 -22 -1 -12 -7 -35 -14 -50 -9 -22 -14 -26
-20 -16 -6 9 -9 4 -9 -14 0 -14 -2 -33 -6 -41 -3 -10 5 -16 28 -21 30 -7 31
-8 12 -16 -23 -9 -50 -63 -39 -79 3 -6 18 -11 32 -11 15 0 33 -10 45 -25 11
-14 26 -25 34 -25 8 0 14 -6 15 -12 0 -7 3 -22 5 -33 3 -11 7 -53 8 -92 l4
-73 -32 -1 c-50 -2 -80 2 -93 13 -14 11 -199 35 -286 37 -20 1 -30 7 -34 21
-3 11 -11 20 -19 20 -7 0 -19 8 -26 19 -11 15 -24 18 -66 16 -28 -1 -52 2 -52
6 0 5 -14 9 -31 9 -17 0 -62 9 -100 21 -49 15 -83 19 -117 15 -70 -8 -72 -9
-72 -17 0 -4 -17 -9 -37 -11 -21 -3 -47 -9 -57 -13 -15 -6 -17 -5 -11 5 6 10
4 12 -11 6 -10 -4 -43 -10 -71 -13 -29 -3 -53 -10 -53 -16 0 -5 -11 -7 -25 -5
-14 3 -28 1 -31 -4 -7 -11 -93 -1 -110 13 -8 6 -22 5 -39 -3 -21 -9 -28 -9
-34 0 -9 15 -118 9 -134 -7 -7 -7 -15 -7 -25 1 -11 10 -16 8 -23 -5 -6 -9 -19
-17 -30 -17 -12 0 -23 -8 -26 -20 -3 -11 -9 -20 -14 -20 -4 0 -24 -11 -44 -24
-20 -14 -49 -27 -65 -31 -35 -8 -39 -22 -7 -27 22 -3 22 -3 -5 -29 -16 -15
-28 -31 -28 -38 0 -6 -8 -11 -17 -11 -13 0 -14 -3 -6 -8 18 -11 43 -76 43
-110 0 -33 35 -119 50 -124 5 -2 10 -19 11 -38 1 -31 13 -66 40 -122 5 -10 9
-33 9 -52 0 -35 22 -110 60 -206 12 -30 26 -74 32 -97 5 -24 14 -43 18 -43 10
0 6 -17 -15 -65 -16 -35 -13 -117 4 -123 6 -2 11 -14 11 -28 0 -35 50 -103 77
-104 17 0 23 8 28 40 4 25 12 40 21 40 8 0 14 7 14 15 0 8 3 15 8 15 16 -1 42
-28 42 -44 0 -9 6 -25 13 -36 9 -16 9 -22 0 -28 -6 -4 -14 -24 -18 -45 -6 -32
-11 -37 -35 -37 -22 0 -28 -5 -32 -27 -8 -42 -1 -233 10 -281 10 -41 9 -43
-27 -72 -20 -17 -46 -33 -58 -36 -12 -3 -24 -12 -27 -20 -3 -8 -15 -14 -26
-14 -11 0 -23 -7 -26 -15 -5 -13 -35 -14 -208 -10 -110 2 -227 8 -260 13 l-58
9 -58 -58 c-39 -39 -71 -61 -98 -68 -21 -6 -60 -22 -86 -36 -61 -33 -69 -32
-82 10 -15 48 13 200 43 236 7 9 11 24 7 33 -4 11 -1 16 14 16 24 0 37 39 16
47 -8 3 -23 -2 -33 -11 -10 -9 -23 -16 -29 -16 -7 0 -12 -4 -12 -10 0 -5 -7
-10 -15 -10 -13 0 -28 -12 -84 -63 -26 -24 -58 -64 -64 -81 -4 -9 -11 -16 -17
-16 -5 0 -10 -6 -10 -13 0 -8 -11 -24 -25 -37 -14 -13 -25 -31 -25 -41 0 -10
-11 -29 -25 -43 -14 -14 -25 -34 -25 -46 0 -11 -7 -23 -15 -26 -8 -4 -15 -12
-15 -20 0 -8 -5 -14 -11 -14 -6 0 -18 -7 -26 -16 -9 -8 -24 -13 -34 -11 -11 3
-19 0 -19 -8 0 -7 -7 -18 -15 -25 -8 -7 -15 -23 -15 -36 0 -19 -7 -24 -44 -29
-24 -4 -54 -4 -66 0 -17 5 -23 2 -27 -14 -4 -15 -13 -21 -34 -21 -22 0 -29 -5
-29 -20 0 -11 -7 -23 -15 -26 -8 -3 -20 -21 -27 -40 -6 -19 -20 -36 -29 -39
-11 -4 -16 -12 -12 -21 3 -8 -1 -14 -10 -14 -8 0 -20 -7 -27 -15 -7 -8 -27
-17 -46 -21 -19 -3 -34 -10 -34 -14 0 -4 -9 -10 -20 -13 -11 -3 -20 -1 -20 4
0 14 -34 11 -56 -6 -26 -19 -41 -19 -66 4 -11 11 -26 17 -33 15 -12 -5 -32 30
-27 47 0 3 -10 12 -25 20 -14 7 -29 24 -34 36 -5 14 -17 23 -31 24 -13 0 -17
3 -10 6 17 7 15 40 -4 47 -28 11 -55 6 -81 -14 -14 -11 -29 -17 -34 -14 -5 3
-9 2 -8 -3 5 -27 -4 -30 -63 -24 -13 2 -9 49 5 54 7 3 5 6 -5 6 -25 1 -23 21
2 21 34 0 22 16 -20 29 -23 7 -40 18 -40 27 0 8 -7 17 -15 20 -9 4 -15 19 -15
40 0 20 -6 37 -14 40 -19 7 -9 74 15 95 20 17 26 35 9 24 -5 -3 -10 1 -10 9 0
9 -4 16 -10 16 -5 0 -10 5 -10 10 0 6 14 10 30 10 20 0 30 -5 30 -15 0 -30 36
-15 59 25 21 37 21 41 5 47 -10 4 -19 2 -21 -4 -3 -7 -18 -9 -41 -6 -40 7 -58
23 -39 35 6 4 9 8 7 10 -3 2 -19 13 -36 25 -24 16 -41 21 -66 16 -19 -3 -60 0
-91 7 -46 9 -57 15 -57 31 0 10 -5 19 -10 19 -6 0 -16 11 -22 25 -6 14 -18 25
-25 25 -9 0 -11 -5 -7 -12 5 -7 -7 1 -24 17 -24 22 -31 36 -27 53 3 12 1 22
-5 22 -6 0 -15 11 -20 25 -5 14 -21 30 -35 35 -15 6 -24 13 -21 18 2 4 0 47
-6 96 -7 69 -6 95 3 113 9 17 10 27 3 31 -17 11 -32 86 -23 111 20 52 18 69
-8 86 -14 9 -43 18 -64 20 -22 1 -48 10 -59 20 -17 16 -19 15 -30 -5 -11 -20
-12 -21 -25 -4 -12 17 -15 15 -44 -17 -18 -18 -31 -29 -30 -24 1 6 1 19 0 30
-1 18 -2 18 -18 2 -15 -14 -16 -21 -5 -37 11 -17 10 -20 -8 -20 -11 0 -20 -4
-20 -9 0 -5 -9 -11 -21 -14 -30 -8 -38 26 -22 92 7 31 13 85 13 121 0 37 5 71
10 76 6 6 15 37 20 70 5 32 14 60 19 62 5 2 7 12 4 23 -3 10 -1 25 5 32 6 7
14 49 18 92 3 44 9 84 12 90 3 5 5 28 3 50 -1 23 4 59 13 81 9 24 17 95 21
189 3 83 8 159 10 170 3 11 7 40 10 65 10 88 17 108 36 113 16 4 18 9 9 32 -7
19 -6 33 5 55 8 16 15 51 15 78 0 27 3 52 7 56 11 10 12 36 2 36 -5 0 -6 23
-3 54 7 55 -8 86 -21 45 -7 -20 -8 -20 -17 -6 -5 10 -7 21 -3 26 3 5 1 12 -5
16 -15 9 -12 41 4 54 23 19 28 75 12 123 -9 23 -11 44 -6 46 5 2 6 10 3 18 -3
8 2 23 11 33 9 10 14 25 10 34 -3 10 2 21 15 29 31 19 25 30 -13 23 -46 -9
-61 17 -52 92 4 38 3 52 -5 48 -5 -4 -8 -13 -5 -21 7 -18 -18 -18 -33 0 -17
20 -6 80 22 129 14 23 27 60 28 82 2 22 14 59 27 83 20 35 29 42 53 42 16 0
31 6 33 13 14 48 39 107 44 103 5 -6 25 15 104 112 28 34 55 62 59 62 5 0 15
12 23 28 8 15 36 48 62 73 27 25 76 72 109 103 33 32 81 68 107 81 26 14 49
29 53 35 3 6 23 19 44 30 21 10 64 44 97 74 32 31 66 56 76 56 10 0 18 5 18
10 0 6 7 10 16 10 24 0 157 41 172 53 7 6 33 10 58 10 39 0 45 3 41 19 -7 26
39 24 55 -2 13 -21 47 -25 83 -11 19 8 45 -7 45 -27 0 -11 105 -23 126 -15 8
3 14 11 14 19 0 8 9 14 20 14 14 0 20 6 18 17 -5 25 43 34 94 16 48 -17 117
-12 150 11 11 8 34 36 52 63 27 42 36 48 70 51 21 2 43 -1 48 -6 15 -15 65 8
78 36 6 14 16 22 25 19 18 -7 75 13 99 36 24 21 20 20 56 2z m1665 -2415 c3
-5 -1 -10 -9 -10 -9 0 -16 5 -16 10 0 6 4 10 9 10 6 0 13 -4 16 -10z m-1145
-245 c0 -8 -4 -15 -10 -15 -5 0 -10 7 -10 15 0 8 5 15 10 15 6 0 10 -7 10 -15z
m1205 -329 c21 -21 30 -44 26 -69 0 -4 -11 -2 -23 5 -13 7 -26 11 -30 10 -5
-1 -8 16 -8 38 0 22 2 40 5 40 3 0 17 -11 30 -24z m865 -527 c0 -5 -4 -8 -9
-4 -20 12 -20 -15 0 -29 15 -10 19 -20 14 -33 -4 -10 -7 -37 -6 -60 2 -25 -2
-43 -8 -43 -6 0 -11 -9 -11 -20 0 -11 -7 -20 -15 -20 -8 0 -19 -9 -25 -20 -6
-11 -16 -20 -23 -20 -7 0 -21 -18 -31 -40 -11 -22 -23 -40 -28 -40 -4 0 -7 -3
-7 -7 1 -5 0 -11 -1 -15 -5 -15 -8 -28 -9 -43 0 -8 -7 -15 -13 -15 -7 0 -30
-16 -50 -35 -30 -28 -38 -43 -38 -69 0 -28 -5 -36 -27 -44 l-28 -10 28 -1 c15
-1 27 -6 27 -12 0 -7 -15 -10 -39 -7 -22 2 -37 0 -35 -3 8 -13 -29 -33 -57
-31 -21 2 -29 -2 -29 -15 0 -9 -3 -13 -7 -9 -5 4 -8 13 -8 19 0 18 -29 15 -32
-3 -4 -17 44 -43 53 -29 6 10 54 13 54 3 0 -4 -8 -13 -17 -20 -10 -7 -15 -16
-11 -20 5 -4 17 1 28 11 19 18 20 17 20 -1 0 -11 -5 -25 -12 -32 -9 -9 -9 -12
3 -12 11 0 14 -8 11 -29 -3 -22 1 -29 15 -33 14 -4 19 -13 17 -29 -1 -13 -3
-34 -3 -46 -1 -21 -6 -23 -53 -24 -29 0 -47 -3 -40 -6 6 -2 12 -16 12 -29 0
-13 5 -24 10 -24 6 0 10 -4 10 -10 0 -5 -7 -10 -15 -10 -8 0 -15 5 -15 11 0 5
-4 7 -10 4 -5 -3 -10 1 -10 9 0 9 -4 16 -9 16 -9 0 -41 -88 -41 -114 0 -9 -5
-16 -11 -16 -6 0 -7 -6 -2 -12 16 -28 -2 -112 -23 -104 -9 3 -14 -1 -14 -13 0
-11 4 -21 9 -23 11 -3 18 -94 9 -103 -3 -4 -19 0 -35 9 -15 8 -23 15 -17 16 7
0 15 7 18 16 3 8 2 12 -4 9 -6 -3 -10 1 -10 11 0 13 -3 14 -15 4 -13 -11 -15
-5 -15 45 0 43 -4 61 -17 71 -17 12 -17 13 0 19 18 7 24 45 8 45 -6 0 -17 -10
-25 -21 -10 -15 -21 -20 -36 -16 -23 6 -54 -19 -46 -38 2 -7 -6 -21 -20 -31
-18 -14 -24 -28 -24 -55 0 -19 -2 -38 -5 -40 -10 -10 -75 4 -75 16 0 7 -7 16
-16 19 -8 3 -12 10 -9 16 18 29 -32 72 -59 51 -6 -5 -24 -11 -39 -13 -23 -5
-30 -1 -37 18 -17 43 -74 59 -83 23 -10 -37 -27 -10 -27 42 0 40 3 49 18 49
14 0 17 7 14 45 -3 28 0 45 7 45 17 0 13 37 -5 44 -27 10 -82 6 -88 -6 -3 -7
-3 -3 0 10 5 20 2 22 -31 22 -41 0 -100 27 -132 62 -22 23 -46 104 -37 120 8
13 -16 38 -35 38 -16 0 -61 75 -61 102 0 6 -11 25 -24 43 -15 20 -21 36 -16
45 9 14 -10 41 -23 33 -5 -3 -11 4 -14 16 -6 23 -19 28 -25 9 -2 -6 -9 -8 -16
-4 -9 5 -7 14 5 32 l17 26 17 -23 17 -23 8 38 c5 32 3 42 -11 53 -22 16 -35
17 -35 3 0 -5 -6 -10 -14 -10 -7 0 -16 -9 -19 -21 -9 -33 -41 -20 -48 21 -4
19 -10 45 -14 58 -5 13 -3 22 3 22 6 0 12 -10 14 -22 2 -19 10 -24 41 -26 20
-2 37 1 37 7 0 15 45 57 69 64 11 2 28 -1 38 -9 10 -7 29 -14 41 -14 13 0 37
-14 52 -30 16 -18 34 -28 43 -24 8 3 21 -1 28 -8 34 -32 53 -42 97 -50 26 -5
59 -11 75 -15 15 -3 33 -1 40 5 7 6 44 14 82 18 39 4 72 10 75 13 11 15 75 39
78 30 2 -5 17 2 34 16 16 14 38 25 48 25 10 0 22 5 25 10 3 6 17 10 31 10 21
0 24 4 19 20 -5 16 -2 20 19 20 31 0 135 37 157 56 8 8 21 14 27 14 7 0 12 5
12 11 0 8 16 10 51 6 33 -4 56 -2 65 6 8 7 31 27 51 44 19 18 39 30 44 28 4
-3 13 4 19 15 11 21 40 28 40 10 0 -5 7 -10 15 -10 8 0 15 5 15 10 0 6 24 10
53 10 28 0 59 5 67 10 20 13 30 12 30 -1z m-1540 -234 c0 -18 -36 -20 -43 -2
-3 8 4 14 19 15 15 1 24 -4 24 -13z m-3505 -456 c6 -83 -16 -173 -32 -134 -9
23 -9 186 1 211 12 33 26 -1 31 -77z m3471 1 c6 0 15 -10 21 -22 48 -105 49
-121 10 -132 -34 -9 -40 -8 -71 19 -18 16 -32 40 -37 67 -5 24 -11 50 -13 58
-4 19 16 39 33 32 11 -4 13 0 8 14 -5 13 0 11 16 -8 12 -16 27 -28 33 -28z
m-2736 -118 c-25 -4 -35 2 -26 17 5 7 13 7 27 -2 20 -12 20 -12 -1 -15z m3150
-224 c0 6 4 12 10 12 5 0 7 -7 4 -15 -8 -21 -34 -19 -34 3 0 14 2 15 10 2 6
-10 10 -11 10 -2z m57 -100 c-3 -8 -6 -5 -6 6 -1 11 2 17 5 13 3 -3 4 -12 1
-19z m443 -68 c0 -5 14 -10 30 -10 29 0 30 -2 30 -46 0 -42 -3 -47 -30 -57
-16 -6 -30 -15 -30 -19 0 -4 -18 -8 -40 -8 -22 0 -40 5 -40 10 0 6 -6 10 -14
10 -8 0 -16 7 -20 15 -4 11 1 15 19 15 22 0 25 4 25 38 0 29 5 40 23 48 29 15
47 16 47 4z m-2075 -67 c14 -15 25 -32 25 -38 0 -13 49 -111 75 -149 12 -18
19 -48 20 -85 3 -74 3 -74 19 -68 9 4 15 -3 18 -23 4 -27 2 -28 -71 -46 -42
-10 -78 -21 -81 -25 -3 -3 -16 -9 -30 -13 -57 -16 -98 -39 -113 -65 -14 -23
-21 -27 -52 -23 -48 6 -85 -15 -102 -55 -14 -35 -25 -38 -95 -27 -34 6 -38 10
-38 35 0 16 4 29 10 29 12 0 90 117 90 135 0 8 5 17 10 20 12 8 50 89 50 107
0 7 13 29 28 48 16 19 34 50 41 68 8 17 17 32 22 32 5 0 9 14 9 30 0 17 3 30
8 30 4 0 23 25 41 55 41 65 74 73 116 28z m-1385 -3 c0 -39 -54 -75 -92 -61
l-23 8 25 8 c28 9 43 23 53 47 6 17 37 15 37 -2z m2797 4 c3 -8 16 -20 29 -25
13 -4 24 -15 24 -24 0 -8 12 -34 26 -57 22 -34 24 -45 15 -60 -10 -16 -8 -18
13 -18 20 0 25 -6 31 -39 5 -31 12 -41 28 -43 18 -2 21 -9 19 -35 -2 -21 3
-39 13 -50 16 -16 16 -17 -1 -30 -25 -18 -84 -16 -106 4 -10 9 -18 27 -18 39
0 13 -9 29 -21 36 -29 18 -59 71 -64 113 -3 20 -10 45 -15 55 -11 21 -14 133
-3 143 11 12 23 8 30 -9z m-2537 -120 c0 -14 -3 -14 -15 -4 -8 7 -15 14 -15
16 0 2 7 4 15 4 8 0 15 -7 15 -16z m655 -605 c-4 -6 3 -13 14 -16 25 -6 22
-29 -3 -25 -9 2 -16 -4 -16 -13 0 -8 -4 -15 -9 -15 -5 0 -7 9 -4 20 3 11 1 20
-5 20 -5 0 -9 -16 -7 -35 1 -19 -2 -35 -7 -35 -4 0 -8 -7 -8 -15 0 -8 -9 -15
-19 -15 -19 0 -19 1 -1 51 10 29 25 56 34 61 9 5 14 13 11 19 -4 5 1 9 10 9 9
0 13 -5 10 -11z m805 -59 c0 -5 -5 -10 -11 -10 -5 0 -7 5 -4 10 3 6 8 10 11
10 2 0 4 -4 4 -10z m-72 -10 c15 -1 15 -2 -1 -15 -18 -13 -17 -14 9 -17 27 -3
27 -4 10 -21 -14 -13 -31 -18 -65 -16 -26 2 -51 0 -57 -3 -12 -7 -88 -3 -102
6 -18 11 -2 36 22 36 12 0 27 5 32 10 6 6 31 13 55 16 24 3 46 7 48 10 3 3 11
2 19 -1 7 -3 21 -5 30 -5z m-828 -95 c0 -8 -4 -15 -9 -15 -13 0 -22 16 -14 24
11 11 23 6 23 -9z m-22 -55 c-1 -25 -7 -40 -15 -40 -7 0 -13 -5 -13 -10 0 -6
-10 -14 -23 -19 -13 -5 -34 -25 -47 -44 l-24 -35 -28 28 c-33 34 -35 46 -8 55
11 3 20 11 20 16 0 5 8 13 18 16 9 4 25 16 34 28 17 20 17 20 18 -7 0 -16 5
-28 11 -28 6 0 10 10 9 23 -4 48 0 57 25 57 24 0 26 -3 23 -40z m458 -75 c-11
-30 -24 -55 -28 -55 -5 0 -7 5 -5 11 1 6 -4 14 -10 16 -7 3 -13 0 -13 -6 0 -6
-7 -11 -16 -11 -13 0 -14 3 -4 14 6 8 10 27 8 42 -2 22 3 30 31 45 53 28 64
11 37 -56z m582 -507 c7 -7 12 -8 12 -2 0 5 4 2 10 -6 7 -12 16 -12 51 -3 47
12 75 3 85 -30 3 -9 10 -15 15 -12 5 4 9 2 9 -4 0 -5 3 -16 6 -25 4 -12 0 -16
-15 -16 -12 0 -21 -5 -21 -11 0 -5 -20 -19 -45 -30 -25 -11 -45 -24 -45 -29 0
-6 -8 -10 -18 -10 -10 0 -23 -5 -29 -11 -14 -14 -148 -23 -170 -11 -12 7 -24
5 -40 -5 -15 -10 -23 -11 -23 -4 0 8 -15 10 -47 6 -42 -6 -51 -3 -75 20 -27
24 -27 26 -9 43 27 26 58 42 81 42 11 0 20 5 20 10 0 6 7 10 15 10 8 0 15 9
15 20 0 13 5 18 15 14 8 -3 24 1 37 10 12 9 30 16 40 16 10 0 18 5 18 11 0 7
10 9 25 5 14 -4 25 -2 25 4 0 14 43 13 58 -2z m237 -48 c3 -5 -3 -10 -15 -10
-12 0 -18 5 -15 10 3 6 10 10 15 10 5 0 12 -4 15 -10z m174 -10 c4 0 8 -6 8
-14 0 -12 -4 -12 -24 1 -14 10 -23 11 -23 4 0 -6 -7 -11 -15 -11 -8 0 -15 4
-15 9 0 11 30 20 48 15 8 -2 17 -4 21 -4z m-89 -20 c0 -11 -7 -20 -15 -20 -8
0 -15 9 -15 20 0 11 7 20 15 20 8 0 15 -9 15 -20z m100 -55 c0 -8 -4 -15 -9
-15 -13 0 -22 16 -14 24 11 11 23 6 23 -9z m4460 -1825 c8 -5 11 -10 6 -10 -5
0 -3 -7 4 -15 10 -13 9 -15 -8 -15 -12 0 -24 5 -28 11 -3 6 -17 8 -30 5 -28
-7 -31 1 -6 20 20 16 42 17 62 4z m398 -217 c2 -13 8 -23 13 -23 5 0 9 -7 9
-15 0 -8 -6 -13 -12 -11 -7 3 -25 7 -40 10 -23 5 -28 12 -28 37 0 27 3 30 28
27 19 -2 28 -9 30 -25z m-8301 -95 c26 -24 30 -56 9 -64 -20 -8 -66 36 -66 63
0 30 26 30 57 1z m8740 -24 c-3 -3 -12 -4 -19 -1 -8 3 -5 6 6 6 11 1 17 -2 13
-5z m-1027 -23 c0 -4 11 -6 25 -3 20 3 25 0 25 -17 0 -21 -24 -29 -35 -11 -3
6 -15 10 -26 10 -10 0 -19 5 -19 11 0 6 -7 9 -15 5 -8 -3 -15 -1 -15 4 0 6 14
10 30 10 17 0 30 -4 30 -9z m1010 -11 c0 -5 -4 -10 -10 -10 -5 0 -10 5 -10 10
0 6 5 10 10 10 6 0 10 -4 10 -10z m-8979 -19 c-8 -5 -20 -7 -28 -4 -21 8 -15
13 15 13 20 0 23 -3 13 -9z m54 -29 c0 -7 -3 -12 -7 -12 -5 0 -12 0 -18 0 -5
0 -10 6 -10 14 0 8 8 13 18 12 9 -2 17 -8 17 -14z m9527 -16 c25 -5 38 -3 41
6 3 7 6 1 6 -14 1 -16 6 -28 13 -28 9 0 8 -3 -1 -12 -11 -10 -14 -10 -18 -1
-3 9 -17 11 -44 7 -43 -7 -120 19 -116 40 2 12 69 25 77 15 3 -3 21 -9 42 -13z
m-9787 -94 c4 9 13 14 21 11 19 -7 18 -21 -3 -25 -16 -3 -15 -6 5 -16 18 -11
22 -10 22 3 0 8 5 15 10 15 6 0 10 -5 10 -10 0 -6 6 -10 13 -8 10 2 79 -16
142 -37 6 -2 -13 -4 -40 -4 -28 -1 -56 -6 -62 -12 -11 -11 -53 7 -53 23 0 5
-5 8 -11 8 -5 0 -8 -4 -5 -8 2 -4 1 -14 -4 -21 -6 -11 -14 -10 -38 8 -17 11
-39 21 -50 21 -34 0 -36 21 -6 45 26 21 30 21 35 7 6 -16 7 -16 14 0z m-595
-22 c0 -5 -2 -10 -4 -10 -3 0 -8 5 -11 10 -3 6 -1 10 4 10 6 0 11 -4 11 -10z
m500 -20 c0 -5 -5 -10 -11 -10 -5 0 -7 5 -4 10 3 6 8 10 11 10 2 0 4 -4 4 -10z
m8933 -33 c-3 -5 -10 -4 -15 1 -6 6 -7 16 -3 22 6 9 9 9 16 -1 4 -7 5 -17 2
-22z m-9532 -14 c13 -13 3 -49 -15 -56 -19 -8 -54 2 -59 16 -2 7 -1 22 4 34 6
16 15 21 34 19 14 -2 31 -8 36 -13z m869 -35 c0 -5 -10 -3 -22 3 -14 8 -18 14
-10 17 6 2 10 9 6 15 -3 7 2 3 10 -7 9 -11 16 -24 16 -28z m10025 31 c4 -6 12
-9 19 -7 6 2 21 -6 33 -19 16 -17 18 -23 8 -23 -8 0 -15 -4 -15 -9 0 -4 -15
-24 -33 -43 -28 -30 -39 -35 -68 -32 -19 2 -39 11 -45 19 -6 8 -16 15 -23 15
-20 0 -1 53 27 75 40 31 86 43 97 24z m-9770 -117 c-3 -3 -11 0 -18 7 -9 10
-8 11 6 5 10 -3 15 -9 12 -12z m10180 4 c19 -8 35 -22 35 -30 0 -10 6 -13 15
-10 24 10 18 -22 -12 -65 -28 -38 -28 -38 -115 -45 -113 -9 -158 2 -158 39 1
18 78 97 89 91 7 -4 9 -1 5 8 -10 27 86 35 141 12z m-1748 -48 c16 -21 3 -87
-19 -99 -11 -6 -25 -8 -32 -6 -7 3 -39 -2 -71 -10 -55 -14 -60 -14 -72 3 -12
17 -11 20 8 24 13 3 24 11 27 18 2 8 -3 10 -15 7 -10 -3 -4 1 12 9 17 8 42 17
58 21 15 3 27 12 27 19 0 13 16 20 56 25 6 0 16 -5 21 -11z m-9417 -38 c0 -5
-4 -10 -10 -10 -5 0 -10 5 -10 10 0 6 5 10 10 10 6 0 10 -4 10 -10z m9180 -55
c0 -8 -4 -15 -10 -15 -5 0 -10 7 -10 15 0 8 5 15 10 15 6 0 10 -7 10 -15z
m-8209 -65 c15 -25 28 -52 28 -60 1 -8 11 -20 23 -25 35 -16 46 -42 26 -62
-15 -14 -21 -15 -42 -4 -13 8 -27 22 -29 32 -3 10 -16 23 -29 28 -13 5 -30 16
-37 25 -8 10 -21 14 -32 11 -15 -5 -19 -1 -19 20 0 14 4 24 8 21 5 -3 9 1 9 9
0 8 -4 15 -9 15 -16 0 -8 29 10 33 43 12 66 2 93 -43z m-862 21 c32 -25 10
-38 -24 -14 -13 10 -25 21 -25 26 0 13 24 7 49 -12z m286 -1 c3 -5 1 -10 -4
-10 -6 0 -11 5 -11 10 0 6 2 10 4 10 3 0 8 -4 11 -10z m68 -4 c4 -10 0 -12
-15 -8 -15 4 -17 7 -6 13 17 11 15 11 21 -5z m970 -16 c14 -17 14 -20 2 -20
-8 0 -15 7 -15 16 0 9 -5 12 -12 8 -7 -4 -8 -3 -4 4 9 15 9 15 29 -8z m7067
-50 c0 -6 14 -10 30 -10 23 0 30 -5 30 -19 0 -25 22 -32 71 -25 35 6 39 4 39
-15 0 -16 -6 -21 -25 -21 -14 0 -25 3 -25 8 0 4 -21 7 -47 7 -61 0 -113 21
-113 46 0 11 -7 19 -15 19 -21 0 -19 28 3 33 20 4 52 -10 52 -23z m1082 -79
c2 -28 0 -37 -9 -34 -8 3 -12 19 -10 39 3 46 14 43 19 -5z m-10822 10 c0 -5
-6 -14 -14 -20 -10 -8 -16 -8 -25 2 -6 8 -8 17 -4 20 9 10 43 8 43 -2z m1220
-2 c0 -6 8 -8 19 -4 12 3 21 0 25 -10 3 -8 12 -15 21 -15 18 0 21 -39 3 -44
-52 -16 -89 -14 -109 7 -11 12 -15 23 -9 25 5 2 10 12 10 22 0 17 12 27 33 29
4 1 7 -4 7 -10z m8730 7 c0 -3 -4 -8 -10 -11 -5 -3 -10 -1 -10 4 0 6 5 11 10
11 6 0 10 -2 10 -4z m-8285 -66 c12 -11 39 -25 59 -31 23 -6 36 -16 36 -26 0
-15 1 -15 13 1 11 14 17 15 42 6 15 -6 34 -9 41 -6 22 8 93 -15 88 -29 -7 -17
-75 -30 -83 -16 -6 10 -32 13 -91 9 -118 -6 -293 11 -308 31 -7 9 -17 17 -22
17 -32 4 -32 7 -5 19 17 8 40 11 51 9 14 -4 26 1 35 14 8 10 21 22 29 25 27
12 92 -1 115 -23z m-1442 6 c6 -14 -10 -36 -27 -36 -9 0 -91 -36 -149 -66 -16
-8 -32 -14 -37 -14 -5 0 -21 -5 -37 -12 -48 -19 -63 -19 -99 6 -45 30 -32 41
66 57 40 6 80 17 87 25 8 7 30 16 51 19 20 4 53 12 72 20 47 17 67 18 73 1z
m2215 -2 c17 10 67 -10 64 -27 -2 -12 9 -17 45 -22 72 -10 74 -13 11 -14 -32
-1 -58 -5 -58 -10 0 -11 126 -4 180 10 52 13 60 11 60 -14 0 -22 -6 -24 -80
-33 -47 -5 -81 -6 -83 0 -2 5 -16 2 -32 -6 -58 -30 -185 7 -185 53 0 11 -4 19
-10 19 -5 0 -10 9 -10 20 0 20 13 25 54 20 13 -1 16 2 10 12 -6 11 -5 11 9 0
9 -8 20 -11 25 -8z m-2613 -25 c-5 -14 -2 -25 6 -30 11 -7 10 -9 -4 -9 -14 0
-17 -5 -12 -19 5 -17 0 -21 -29 -26 -68 -13 -111 18 -93 66 9 23 18 29 52 32
90 8 87 9 80 -14z m2928 0 c-5 -5 -20 -5 -33 -2 l-25 7 25 6 c28 8 46 2 33
-11z m-1933 -3 c0 -8 -6 -16 -12 -19 -10 -3 -10 -7 0 -20 18 -21 6 -59 -16
-55 -21 4 -27 44 -13 81 11 28 41 38 41 13z m2021 3 c11 -5 17 -15 13 -21 -4
-5 -2 -13 4 -17 5 -3 12 -22 13 -41 3 -27 0 -35 -14 -38 -28 -6 -67 25 -67 53
0 14 -5 25 -11 25 -6 0 -3 7 5 16 9 8 16 20 16 25 0 12 17 11 41 -2z m-2310
-31 c10 -18 9 -20 -6 -15 -9 4 -19 7 -21 7 -2 0 -4 7 -4 15 0 22 18 18 31 -7z
m846 16 c-3 -3 -12 -4 -19 -1 -8 3 -5 6 6 6 11 1 17 -2 13 -5z m3 -34 c0 -12
-24 -12 -60 0 -21 7 -19 8 18 9 23 1 42 -3 42 -9z m10270 -8 c0 -17 -42 -12
-48 5 -2 9 5 12 22 11 14 -1 26 -8 26 -16z m595 -102 c-3 -5 -1 -10 4 -10 6 0
11 5 11 10 0 11 52 13 88 4 23 -7 23 -7 3 -25 -21 -20 -70 -24 -106 -10 -14 6
-24 3 -33 -8 -8 -9 -11 -10 -7 -3 4 8 -6 13 -37 14 -56 3 -100 5 -116 7 -7 0
-10 6 -7 12 4 5 19 8 33 5 15 -3 43 -2 62 3 50 13 112 13 105 1z m142 -46 c-3
-3 -12 -4 -19 -1 -8 3 -5 6 6 6 11 1 17 -2 13 -5z m-12807 -28 c0 -20 -12 -26
-38 -19 -26 6 -29 20 -4 26 32 9 42 7 42 -7z m821 -7 c25 -25 21 -30 -20 -31
-39 -1 -51 10 -29 26 10 7 15 16 11 19 -3 4 -1 7 5 7 7 0 21 -9 33 -21z
m12153 6 c10 -8 22 -12 26 -10 5 3 10 -1 13 -9 3 -8 15 -12 31 -9 28 6 150
-48 159 -69 7 -20 -60 -21 -94 -1 -16 10 -29 21 -29 25 0 8 -85 51 -105 54 -5
0 -18 2 -27 2 -11 1 -15 7 -12 17 7 18 14 18 38 0z m-12409 -35 c3 -5 -1 -10
-10 -10 -9 0 -13 5 -10 10 3 6 8 10 10 10 2 0 7 -4 10 -10z m1957 -43 c10 -16
-1 -34 -20 -33 -23 2 -62 24 -62 36 0 21 68 19 82 -3z m38 -15 c0 -13 -12 -22
-22 -16 -10 6 -1 24 13 24 5 0 9 -4 9 -8z m8410 -3 c0 -7 -10 -9 -25 -7 -14 3
-25 1 -25 -5 0 -6 -3 -8 -6 -4 -3 3 -3 10 1 16 8 15 55 14 55 0z m2290 -46 c0
-7 -4 -13 -10 -13 -5 0 -10 12 -10 28 0 21 2 24 10 12 5 -8 10 -21 10 -27z
m-2330 5 c0 6 9 12 20 12 26 0 26 -16 -1 -31 -22 -11 -39 0 -39 26 0 6 5 3 10
-5 6 -10 10 -11 10 -2z m1607 -14 c4 0 15 -4 23 -7 8 -3 39 -5 68 -4 28 1 53
-2 55 -7 2 -5 25 -9 51 -9 35 1 46 -2 43 -12 -4 -9 9 -13 46 -14 56 -1 152
-35 160 -55 4 -9 -2 -11 -18 -8 -12 2 -32 -1 -44 -7 -14 -8 -21 -8 -21 -1 0 5
-9 10 -20 10 -11 0 -28 8 -37 18 -12 11 -30 16 -50 14 -30 -3 -33 -6 -33 -37
0 -26 -3 -33 -15 -29 -8 4 -15 12 -15 20 0 8 -4 14 -9 14 -5 0 -12 9 -16 19
-5 16 -10 18 -35 8 -16 -6 -31 -19 -33 -29 -6 -21 -37 -25 -37 -4 0 7 -9 16
-20 19 -12 3 -20 14 -20 26 0 19 6 21 50 21 61 0 66 15 8 23 -31 5 -46 2 -54
-8 -6 -8 -24 -15 -39 -15 -23 0 -25 2 -15 15 10 12 7 15 -14 21 -36 9 -52 -5
-27 -23 28 -19 27 -49 -1 -58 -27 -8 -51 -8 -175 1 -88 6 -93 7 -93 28 0 32 7
36 41 24 33 -12 47 -5 31 14 -7 9 -7 17 1 28 9 12 34 15 112 14 55 -1 107 2
115 7 9 4 18 3 22 -4 4 -7 11 -12 15 -13z m-9897 -4 c0 -5 -9 -10 -20 -10 -11
0 -20 5 -20 10 0 6 9 10 20 10 11 0 20 -4 20 -10z m-1695 -60 c25 -50 33 -110
15 -110 -6 0 -13 7 -16 15 -4 8 -16 15 -28 16 -11 0 -15 3 -8 6 16 6 16 23 -1
23 -18 0 -64 55 -58 71 6 19 22 29 48 29 17 0 29 -12 48 -50z m9485 34 c73
-12 119 -64 70 -79 -27 -9 -76 3 -91 21 -6 8 -19 14 -28 14 -18 1 -47 20 -50
34 -4 14 20 25 43 20 12 -2 37 -7 56 -10z m-8147 -20 c31 -5 38 -10 35 -28 -3
-18 -11 -21 -55 -24 -54 -3 -93 10 -93 31 0 15 39 35 60 31 8 -2 32 -6 53 -10z
m473 -8 c65 -13 84 -20 84 -30 0 -7 -21 -11 -55 -11 -42 0 -57 5 -69 20 -16
23 -10 51 8 35 7 -5 21 -11 32 -14z m7144 14 c0 -5 -5 -10 -11 -10 -5 0 -7 5
-4 10 3 6 8 10 11 10 2 0 4 -4 4 -10z m50 0 c0 -5 -4 -10 -10 -10 -5 0 -10 5
-10 10 0 6 5 10 10 10 6 0 10 -4 10 -10z m-7997 -47 c-7 -3 -13 -11 -13 -18 0
-21 -17 -27 -40 -15 -16 9 -20 8 -20 -5 0 -21 -66 -21 -74 1 -9 23 -9 22 32
40 20 8 49 13 64 10 15 -3 30 -1 34 5 4 7 10 7 18 -1 8 -9 8 -14 -1 -17z m987
7 c25 -5 52 -11 60 -13 8 -3 28 -8 43 -12 24 -5 27 -8 17 -20 -16 -20 -47 -19
-67 1 -11 10 -26 14 -45 10 -15 -3 -28 -2 -28 3 0 5 -8 7 -17 5 -24 -6 -58 19
-49 35 5 7 15 9 25 5 9 -3 36 -10 61 -14z m329 -34 c8 -6 51 -12 95 -13 139
-3 215 -9 222 -15 3 -4 4 -14 1 -23 -5 -12 -22 -15 -84 -13 -52 2 -77 7 -76
15 1 6 -4 14 -12 17 -9 3 -15 -1 -15 -9 0 -8 -5 -15 -11 -15 -5 0 -8 4 -5 9
10 16 -23 21 -38 6 -17 -18 -97 -20 -113 -4 -6 6 -43 14 -82 17 -62 4 -71 7
-71 24 0 16 7 19 50 17 27 -2 53 1 57 5 9 9 64 -3 82 -18z m9711 -26 c0 -5 -6
-10 -14 -10 -8 0 -18 5 -21 10 -3 6 3 10 14 10 12 0 21 -4 21 -10z m120 6 c0
-3 -4 -8 -10 -11 -5 -3 -10 -1 -10 4 0 6 5 11 10 11 6 0 10 -2 10 -4z m46 -10
c3 -8 15 -17 27 -20 21 -5 21 -6 2 -20 -14 -10 -16 -18 -10 -28 9 -12 -6 4
-35 39 -13 16 -13 43 0 43 6 0 13 -6 16 -14z m-10596 -16 c31 -9 80 -52 80
-71 0 -4 21 -9 48 -12 60 -6 123 -23 131 -35 11 -16 35 -19 73 -7 30 8 60 7
141 -6 61 -11 106 -14 111 -9 6 6 14 6 21 0 6 -5 53 -12 105 -16 52 -4 105
-11 118 -15 14 -5 22 -5 22 2 0 14 68 0 99 -19 15 -10 50 -16 95 -17 166 -4
168 -4 162 -20 -3 -9 0 -15 9 -15 8 0 14 -3 14 -7 -4 -28 3 -43 21 -43 15 0
20 6 19 23 -4 49 0 60 24 54 12 -3 69 -17 127 -31 58 -14 115 -26 127 -26 21
0 43 -41 43 -81 0 -24 -46 -25 -74 -4 -11 8 -34 15 -50 15 -17 0 -60 9 -96 20
-36 11 -78 19 -95 19 l-30 -1 30 -7 30 -7 -30 -7 c-16 -4 -85 -9 -152 -11 -93
-4 -125 -1 -140 9 -10 8 -27 15 -39 15 -11 0 -24 3 -28 7 -3 4 -97 9 -208 10
-111 2 -209 8 -220 14 -10 5 -50 12 -89 14 -53 4 -75 10 -85 23 -10 12 -16 14
-21 5 -10 -14 -117 -18 -157 -6 -37 11 -70 66 -62 104 6 30 -18 59 -50 59 -16
0 -17 -2 -4 -10 11 -7 11 -10 2 -10 -8 0 -12 -10 -10 -27 3 -25 -1 -28 -30
-31 -22 -2 -34 2 -38 12 -4 10 -18 16 -38 16 -28 -1 -29 -2 -14 -14 21 -15 13
-26 -18 -26 -31 0 -36 11 -28 70 6 44 9 50 31 50 15 0 22 4 18 11 -4 6 -13 8
-21 5 -8 -3 -14 1 -14 8 0 8 17 18 38 24 50 13 61 14 102 2z m1135 -11 c5 -6
3 -9 -8 -10 -9 -1 -25 -2 -34 -3 -10 0 -19 7 -21 18 -3 16 0 18 25 12 15 -4
32 -12 38 -17z m-2300 -59 c4 -6 11 -8 16 -5 5 4 9 -3 9 -14 0 -12 -4 -21 -10
-21 -5 0 -10 -6 -10 -14 0 -7 -11 -21 -25 -30 -14 -9 -25 -13 -25 -8 0 5 -14
6 -31 4 -25 -4 -36 1 -50 19 -10 13 -19 30 -19 36 0 13 45 29 68 25 6 -2 20 2
30 7 22 13 39 14 47 1z m675 -75 c0 -8 -2 -15 -4 -15 -2 0 -11 -3 -20 -6 -10
-4 -16 -1 -16 9 0 14 13 24 33 26 4 1 7 -6 7 -14z m244 -22 c-4 -21 -11 -41
-16 -44 -5 -3 -8 -10 -7 -15 6 -35 -2 -45 -37 -42 -22 1 -39 9 -45 19 -12 24
-11 29 5 23 8 -3 17 -1 21 5 3 6 -1 11 -9 11 -9 0 -16 6 -16 14 0 19 17 30 22
15 2 -7 17 2 33 19 42 43 58 42 49 -5z m7721 16 c-4 -12 -8 -29 -9 -37 -2 -9
-9 -18 -16 -20 -9 -3 -11 1 -7 11 3 9 2 17 -2 19 -5 2 -12 13 -15 26 -7 20 -4
22 24 22 27 0 31 -3 25 -21z m-68 -25 c-9 -9 -28 6 -21 18 4 6 10 6 17 -1 6
-6 8 -13 4 -17z m103 16 c0 -5 -4 -10 -10 -10 -5 0 -10 5 -10 10 0 6 5 10 10
10 6 0 10 -4 10 -10z m614 -21 c5 -5 -3 -13 -19 -19 -22 -8 -26 -15 -23 -35 4
-16 1 -25 -8 -25 -7 0 -15 12 -17 28 -4 25 -4 25 -6 -5 -1 -23 3 -33 14 -33 8
0 15 -4 15 -10 0 -5 -6 -9 -12 -7 -7 1 -12 -4 -10 -10 1 -7 -4 -13 -12 -13 -8
0 -13 7 -12 16 2 23 -53 42 -66 23 -7 -10 -8 -8 -3 7 4 16 0 23 -17 29 -21 6
-21 8 -4 12 10 3 22 -1 26 -7 5 -8 15 -10 26 -5 11 5 25 7 33 6 7 -1 11 3 9 9
-2 6 -7 11 -12 10 -5 -1 -13 5 -18 14 -5 8 -15 13 -23 10 -8 -4 -15 -1 -15 4
0 20 133 21 154 1z m-161 -26 c-7 -2 -19 -2 -25 0 -7 3 -2 5 12 5 14 0 19 -2
13 -5z m-8689 -85 c-9 -15 -22 -8 -19 10 2 9 4 19 4 22 1 3 5 -2 10 -10 6 -8
7 -18 5 -22z m-1204 -133 c4 0 12 -3 16 -7 4 -5 0 -8 -9 -8 -9 0 -19 5 -22 10
-4 6 -11 8 -16 5 -5 -4 -9 4 -9 17 1 23 1 23 16 3 8 -11 19 -20 24 -20z m-307
8 c4 -3 2 -12 -4 -20 -9 -10 -8 -13 5 -13 14 0 14 -3 4 -20 -12 -19 -66 -29
-69 -12 -1 4 -3 17 -4 28 -1 12 -5 26 -9 33 -8 12 65 16 77 4z m-260 -38 c-3
-9 -8 -14 -10 -11 -3 3 -2 9 2 15 9 16 15 13 8 -4z m627 -20 c0 -8 -4 -15 -8
-15 -5 0 -9 7 -9 15 0 8 4 15 9 15 4 0 8 -7 8 -15z m-800 -21 c0 -13 7 -15 34
-11 36 6 58 -7 49 -29 -7 -18 -80 -19 -85 -2 -3 9 -9 8 -22 -5 -23 -22 -30
-22 -23 2 4 15 1 18 -12 14 -9 -4 -13 -3 -9 2 4 4 2 15 -5 23 -10 13 -9 15 5
9 10 -3 20 -2 23 3 10 17 45 11 45 -6z m500 6 c0 -5 -4 -10 -10 -10 -5 0 -10
5 -10 10 0 6 5 10 10 10 6 0 10 -4 10 -10z m2027 -254 c-6 -17 -47 -20 -47 -3
0 9 6 17 13 20 18 6 38 -4 34 -17z m576 -17 c20 0 24 -29 3 -29 -7 0 -20 -7
-27 -16 -11 -13 -26 -15 -80 -11 -45 4 -86 1 -125 -10 -85 -22 -94 -23 -94
-11 0 5 6 8 13 5 9 -3 12 5 9 29 l-4 34 78 1 c112 2 132 4 141 13 4 4 21 5 38
1 16 -3 38 -6 48 -6z m252 -4 c14 -3 34 -1 45 5 24 13 120 -8 120 -26 0 -13 6
-12 48 2 30 11 112 15 112 6 0 -5 6 -9 13 -10 26 -2 73 -12 107 -22 22 -6 36
-6 38 0 4 12 64 1 74 -14 14 -20 8 -27 -14 -20 -35 11 -82 12 -88 3 -3 -5 -26
-11 -50 -13 -25 -3 -52 -6 -60 -8 -24 -4 -94 14 -102 26 -9 13 -145 11 -261
-4 -80 -11 -90 -10 -101 5 -6 9 -27 20 -46 24 -31 6 -32 8 -17 23 16 15 16 17
-1 22 -9 2 -1 3 18 0 19 -2 49 0 65 5 29 8 42 8 100 -4z m1186 -45 c24 -13 25
-40 2 -40 -25 0 -103 31 -103 41 0 12 77 11 101 -1z m-458 -36 c-1 -6 8 -9 21
-7 26 5 41 -10 32 -33 -5 -12 -10 -13 -28 -3 -12 7 -50 13 -84 14 -34 1 -66 5
-73 9 -19 12 -12 28 10 21 14 -5 19 -3 15 3 -9 15 10 18 63 12 25 -3 45 -10
44 -16z m662 1 c22 -8 36 -15 30 -16 -75 -10 -145 1 -145 23 0 13 73 9 115 -7z
m-1151 -278 c-4 -26 -3 -37 4 -33 6 4 8 -2 5 -14 -3 -11 -14 -20 -24 -20 -11
0 -19 -4 -19 -10 0 -5 8 -10 18 -10 22 1 54 25 50 38 -2 6 6 17 17 25 19 15
19 15 -5 35 l-25 20 27 12 c31 14 78 6 78 -14 0 -20 32 -45 37 -28 3 6 11 12
18 12 8 0 19 9 25 21 10 18 17 20 53 14 23 -4 49 -13 58 -21 8 -8 32 -14 52
-14 25 0 37 -5 37 -14 0 -17 55 -27 70 -12 7 7 10 3 10 -12 0 -16 6 -22 23
-22 13 0 29 -6 37 -12 7 -7 4 1 -8 17 l-20 31 26 -2 c58 -3 58 -4 40 -18 -10
-7 -18 -29 -20 -52 -2 -21 -7 -42 -13 -46 -18 -13 -55 -9 -61 7 -5 11 -10 12
-18 5 -8 -6 -37 -7 -79 -2 -53 7 -67 6 -67 -5 0 -9 -14 -13 -40 -13 -29 0 -40
4 -40 16 0 8 -10 33 -22 54 -24 42 -58 54 -58 21 0 -11 -4 -22 -9 -25 -4 -3
-11 -19 -14 -36 -5 -23 -10 -28 -24 -23 -10 4 -21 11 -25 17 -5 7 -8 7 -8 -1
0 -7 -5 -13 -11 -13 -5 0 -7 5 -3 12 4 7 3 8 -4 4 -6 -4 -20 -2 -30 3 -13 7
-34 6 -68 -4 -27 -7 -40 -14 -30 -14 11 -1 17 -3 15 -6 -3 -2 -28 -1 -57 4
-31 5 -52 4 -52 -1 0 -5 -19 -8 -42 -6 l-43 3 -1 50 c-1 28 0 40 3 28 2 -13 9
-23 14 -23 12 0 11 17 -1 41 -9 16 -7 19 11 19 13 0 23 8 26 21 4 13 11 18 22
15 13 -5 13 -3 -2 8 -15 11 -15 15 -3 19 8 3 16 1 19 -6 2 -8 18 -7 58 4 38
11 61 12 77 5 20 -9 22 -14 16 -49z m10324 30 c0 -25 -4 -33 -20 -34 -11 -1
-22 7 -27 20 -10 26 3 47 29 47 14 0 18 -8 18 -33z m-10640 8 c2 -1 4 -12 5
-24 1 -11 5 -21 9 -21 4 0 8 -7 8 -15 0 -9 8 -19 18 -23 9 -4 18 -11 19 -17 0
-5 3 -25 6 -42 l5 -33 -63 0 c-72 0 -89 11 -105 68 -14 54 -13 70 10 82 11 6
18 15 15 20 -8 12 16 20 45 14 14 -3 26 -7 28 -9z m-2798 -10 c0 -2 -18 -5
-40 -7 -24 -2 -40 1 -40 7 0 6 16 9 40 7 22 -2 40 -5 40 -7z m2698 8 c-10 -2
-26 -2 -35 0 -10 3 -2 5 17 5 19 0 27 -2 18 -5z m-255 -10 c-7 -2 -19 -2 -25
0 -7 3 -2 5 12 5 14 0 19 -2 13 -5z m93 -73 c18 0 24 -6 25 -22 l0 -23 9 23
c5 12 16 22 24 22 14 0 17 -6 31 -65 6 -25 8 -27 14 -12 6 17 9 15 20 -10 7
-15 9 -25 5 -21 -4 4 -13 3 -19 -2 -16 -13 -45 -2 -45 16 0 8 -9 15 -20 15
-28 2 -33 3 -47 12 -6 4 -14 3 -18 -2 -11 -18 -36 0 -30 23 2 11 2 15 -1 8 -8
-17 -24 -5 -24 18 0 20 17 31 38 24 8 -2 25 -4 38 -4z m1359 -20 c10 -16 -16
-43 -28 -31 -11 11 -2 41 12 41 5 0 13 -5 16 -10z m-3930 -210 c3 -5 1 -10 -4
-10 -6 0 -11 5 -11 10 0 6 2 10 4 10 3 0 8 -4 11 -10z m-297 -46 l23 -7 -23
-12 c-26 -13 -38 -10 -38 11 0 16 5 17 38 8z m765 -26 c25 -24 25 -48 0 -48
-10 0 -14 6 -10 19 3 12 -1 22 -9 25 -8 3 -14 10 -14 16 0 15 6 13 33 -12z
m12067 -138 c0 -5 -4 -10 -10 -10 -5 0 -10 5 -10 10 0 6 5 10 10 10 6 0 10 -4
10 -10z m617 -216 c2 -7 -9 -12 -29 -12 -18 0 -42 -2 -53 -4 -12 -2 -21 4 -23
15 -3 16 3 18 49 15 29 -2 54 -8 56 -14z m-13512 -284 c3 -5 1 -10 -4 -10 -6
0 -11 5 -11 10 0 6 2 10 4 10 3 0 8 -4 11 -10z m14068 -5 c26 -4 41 -13 46
-28 12 -32 6 -36 -44 -32 -50 4 -68 12 -60 26 4 5 2 9 -4 9 -5 0 -11 -6 -13
-12 -3 -8 -9 -4 -17 10 -10 18 -9 22 4 22 8 0 15 5 15 11 0 6 8 8 18 6 9 -3
34 -8 55 -12z m-1082 -441 c5 -3 9 0 9 6 0 12 64 7 137 -12 42 -10 42 -10 28
-38 -13 -24 -19 -27 -56 -24 -24 2 -47 11 -54 21 -11 15 -13 15 -19 -5 -7 -22
-36 -31 -36 -12 0 14 -27 12 -33 -2 -3 -8 -6 -6 -6 5 -1 9 -8 18 -16 18 -8 1
-25 2 -37 3 -17 1 -24 8 -26 27 -3 26 -2 26 49 23 28 -3 55 -7 60 -10z m224
-42 c-3 -3 -11 0 -18 7 -9 10 -8 11 6 5 10 -3 15 -9 12 -12z m-880 -2 c3 -5 1
-10 -4 -10 -6 0 -11 5 -11 10 0 6 2 10 4 10 3 0 8 -4 11 -10z m1085 -52 c0
-13 -53 -9 -80 7 l-25 14 23 1 c13 0 20 4 17 10 -4 6 10 3 29 -7 20 -9 36 -20
36 -25z m179 -9 c-7 -15 -4 -18 19 -22 17 -2 10 -5 -19 -6 -30 0 -51 4 -59 14
-18 21 -3 36 35 33 28 -2 32 -5 24 -19z m731 -159 c0 -5 -4 -10 -10 -10 -5 0
-10 5 -10 10 0 6 5 10 10 10 6 0 10 -4 10 -10z m-12968 -81 c9 0 22 -7 29 -15
6 -8 16 -14 21 -14 9 0 22 -10 77 -60 9 -8 25 -26 36 -40 11 -14 33 -33 49
-44 46 -30 86 -68 86 -84 0 -8 6 -12 15 -9 8 4 17 1 21 -4 3 -6 19 -18 34 -28
15 -9 47 -41 71 -71 24 -30 54 -66 66 -80 13 -14 22 -33 19 -42 -2 -11 2 -18
10 -18 14 0 54 -30 83 -62 8 -10 21 -18 28 -18 7 0 13 -6 13 -13 0 -7 9 -18
20 -25 11 -7 20 -16 20 -22 0 -5 10 -20 23 -34 38 -41 47 -55 47 -69 0 -8 11
-27 25 -43 14 -16 25 -34 25 -40 0 -6 9 -19 20 -29 11 -10 20 -29 20 -42 0
-13 4 -22 8 -19 4 2 14 -10 21 -27 19 -43 40 -67 76 -84 17 -8 39 -20 50 -26
88 -54 88 -54 213 -63 45 -3 82 -10 82 -15 0 -5 11 -9 24 -9 13 0 26 -4 28
-10 3 -10 43 -17 288 -50 80 -11 173 -24 206 -30 34 -5 77 -10 97 -10 20 0 48
-5 64 -11 15 -6 73 -15 128 -20 55 -5 123 -12 150 -15 28 -3 95 -9 150 -13 55
-4 105 -10 111 -13 5 -4 59 -9 119 -12 151 -8 387 -25 525 -37 165 -15 665
-21 800 -9 63 5 185 14 270 20 179 12 301 24 455 46 61 8 164 21 230 29 110
12 153 18 300 45 28 5 75 12 105 15 30 4 89 13 130 21 67 14 98 13 175 -2 18
-4 314 -13 468 -15 31 0 73 5 91 11 26 8 49 8 88 0 29 -6 94 -13 143 -16 50
-3 115 -9 145 -15 30 -6 126 -14 212 -19 112 -7 164 -14 181 -25 13 -8 27 -12
31 -8 4 4 10 3 14 -3 14 -22 225 -66 357 -75 72 -5 171 -13 220 -19 275 -31
708 -82 905 -106 25 -4 86 -16 135 -29 50 -12 126 -30 170 -39 44 -9 135 -34
201 -56 67 -22 130 -40 140 -40 10 0 36 -6 59 -14 22 -8 66 -20 98 -27 31 -7
57 -15 57 -19 0 -4 13 -13 28 -19 16 -7 41 -32 57 -56 32 -52 85 -95 115 -95
11 0 50 18 86 40 36 22 73 40 83 40 9 0 29 7 45 15 15 8 40 15 55 15 14 0 33
5 41 10 61 39 168 142 196 190 10 16 22 30 26 30 4 0 8 6 8 13 0 6 12 26 28
42 15 17 56 64 92 105 68 77 167 180 175 180 2 0 15 10 27 23 35 32 97 80 126
96 15 8 32 20 40 27 7 8 20 14 27 14 8 0 18 6 22 13 14 24 125 85 223 123 52
20 104 40 115 45 36 14 189 52 245 59 30 5 98 14 150 22 214 30 508 7 771 -60
56 -14 182 -64 200 -79 8 -7 22 -13 30 -13 8 0 44 -16 79 -35 36 -19 79 -41
95 -49 17 -8 43 -29 58 -47 15 -18 27 -29 27 -23 0 5 4 4 8 -1 4 -6 19 -18 35
-28 15 -10 27 -24 27 -32 0 -8 6 -15 13 -15 19 0 50 -37 42 -49 -4 -7 3 -11
17 -11 18 0 28 -11 46 -54 13 -29 22 -57 21 -62 -4 -26 3 -42 22 -47 16 -4 19
-11 14 -27 -4 -11 -3 -27 2 -33 4 -7 1 -5 -8 5 -16 16 -17 16 -23 1 -4 -9 -1
-20 5 -24 10 -6 9 -19 -4 -59 -9 -29 -17 -67 -17 -85 0 -18 -6 -44 -12 -57
-19 -34 -12 -198 8 -198 21 0 17 -9 -16 -40 -17 -15 -30 -37 -30 -49 0 -26 -9
-27 -26 -4 -7 10 -16 15 -20 11 -4 -5 0 -16 9 -26 12 -13 17 -36 17 -74 0 -43
4 -57 16 -62 15 -6 14 -10 -6 -31 -13 -14 -19 -25 -14 -25 5 0 2 -5 -6 -10
-12 -8 -11 -10 8 -10 13 0 22 -6 22 -16 0 -8 -4 -13 -9 -9 -19 11 -23 -17 -5
-31 18 -14 18 -15 -3 -30 -13 -9 -23 -23 -23 -30 0 -8 -7 -14 -16 -14 -9 0
-12 -5 -8 -12 4 -7 3 -8 -4 -4 -7 4 -12 14 -12 22 0 9 -11 14 -32 14 -59 0
-63 -8 -63 -125 -1 -96 -2 -106 -22 -120 -12 -9 -28 -21 -35 -29 -7 -7 -19
-15 -27 -17 -10 -4 -10 -8 3 -18 14 -11 16 -11 16 3 0 9 8 16 20 16 22 0 23
-1 14 -24 -3 -9 -11 -16 -18 -16 -6 0 -12 -9 -13 -20 -1 -16 4 -20 28 -20 32
0 37 -15 14 -46 -8 -10 -15 -22 -15 -26 0 -15 38 -8 44 7 3 10 19 15 46 15 29
0 40 4 40 15 0 8 2 15 5 15 9 0 50 -45 47 -52 -1 -5 7 -8 17 -8 24 0 30 -9 33
-46 2 -15 15 -40 30 -56 16 -17 28 -36 28 -44 0 -8 10 -14 23 -14 l22 1 -22
18 c-25 21 -31 61 -9 61 8 0 17 6 19 13 3 6 6 2 6 -10 1 -13 -3 -23 -9 -23 -5
0 -10 -7 -10 -15 0 -22 21 -18 27 5 5 19 6 19 19 3 12 -17 13 -17 19 -1 4 9 1
26 -5 38 -10 18 -9 21 1 18 9 -3 18 -41 26 -114 21 -192 20 -227 -7 -254 -21
-21 -27 -60 -10 -60 6 0 10 -7 10 -15 0 -9 7 -27 16 -40 15 -23 15 -25 0 -25
-10 0 -15 4 -12 9 3 5 -2 15 -11 22 -15 12 -16 12 -10 -3 4 -11 2 -18 -6 -18
-9 0 -9 -2 -1 -8 6 -4 12 -20 12 -37 1 -16 5 -52 9 -80 6 -39 12 -50 26 -49
13 1 17 -6 17 -33 0 -25 -3 -32 -12 -27 -10 6 -10 5 -1 -7 18 -22 14 -87 -6
-92 -13 -3 -15 -17 -13 -80 3 -55 7 -77 17 -77 22 0 25 -60 3 -73 -10 -7 -18
-18 -18 -25 0 -8 -6 -12 -14 -9 -14 6 -26 -38 -26 -100 0 -17 -4 -33 -9 -35
-5 -1 -12 -23 -14 -47 -4 -43 -25 -71 -52 -71 -7 0 -20 -18 -31 -40 -10 -22
-25 -40 -31 -40 -8 0 -13 -13 -13 -32 0 -18 -7 -42 -15 -52 -9 -12 -15 -42
-15 -76 0 -31 -5 -61 -12 -68 -9 -9 -8 -16 5 -29 9 -11 13 -24 8 -31 -12 -19
-1 -72 15 -72 8 0 14 -9 14 -20 0 -11 -6 -20 -14 -20 -7 0 -16 -8 -19 -18 -2
-11 -17 -22 -36 -25 -17 -4 -30 -10 -29 -14 1 -5 -3 -17 -9 -29 -7 -11 -11
-44 -10 -74 2 -38 -2 -59 -15 -76 l-19 -23 -42 19 c-27 12 -44 15 -48 9 -7
-11 -89 25 -89 39 0 7 -30 21 -72 35 -9 3 -18 18 -20 34 -2 17 -9 28 -18 28
-8 0 -19 5 -23 10 -5 6 -7 0 -4 -12 3 -13 1 -23 -5 -23 -6 0 -7 16 -3 40 4 26
3 40 -4 40 -6 0 -11 7 -11 16 0 12 -3 14 -12 6 -7 -5 -22 -12 -33 -15 -13 -3
-8 -5 13 -6 21 -1 32 -5 30 -13 -6 -16 -62 -31 -66 -18 -2 6 -12 10 -22 10
-10 0 -22 4 -25 10 -3 6 -15 10 -26 10 -10 0 -19 5 -19 10 0 6 -16 10 -36 10
-21 0 -33 -4 -29 -10 3 -6 19 -10 35 -10 16 0 32 -4 35 -10 3 -5 15 -10 26
-10 25 0 24 -16 -1 -30 -16 -8 -20 -8 -20 4 0 10 -14 18 -37 22 -44 8 -54 20
-47 51 4 16 1 25 -10 29 -23 9 -20 24 6 24 12 0 18 3 15 7 -4 3 0 11 7 17 24
19 29 54 9 58 -12 2 -18 13 -19 33 -2 66 -1 65 -42 61 -28 -3 -39 0 -39 10 0
7 3 11 6 9 4 -2 7 12 7 31 0 19 -3 34 -8 34 -4 0 -8 12 -8 26 0 23 -23 53 -41
54 -3 0 -6 -22 -8 -50 -2 -48 -1 -50 24 -50 16 0 25 -6 25 -15 0 -21 -93 -21
-110 0 -14 17 -50 20 -50 4 0 -5 -5 -7 -10 -4 -6 4 -8 11 -4 16 3 5 -8 8 -25
7 -16 -1 -29 -7 -28 -13 1 -5 -10 -11 -25 -13 -23 -3 -26 0 -22 20 5 23 4 23
-7 1 -21 -39 -49 -36 -91 9 -21 23 -38 45 -38 50 0 4 -7 8 -15 8 -8 0 -19 9
-25 20 -8 14 -17 19 -30 15 -10 -3 -33 1 -51 10 -17 9 -28 12 -25 6 4 -7 1 -8
-8 -5 -9 3 -16 15 -16 25 0 31 -30 22 -36 -11 -4 -16 -10 -30 -14 -30 -19 0
-40 13 -40 25 0 8 -8 11 -22 8 -17 -3 -19 -2 -9 5 10 7 10 11 1 17 -7 4 -13
-1 -16 -12 -4 -15 -13 -19 -40 -17 -19 2 -34 -1 -34 -6 0 -6 -20 -10 -45 -10
-33 0 -45 4 -45 15 0 11 -11 15 -40 15 -32 0 -40 4 -40 19 0 25 -67 81 -97 81
-13 0 -33 -9 -45 -20 -22 -20 -38 -18 -38 6 0 30 -29 13 -36 -21 -5 -31 -24
-60 -24 -38 0 4 -14 23 -31 41 -31 33 -49 34 -49 3 0 -13 -9 -20 -28 -23 -41
-6 -52 0 -52 28 0 15 -6 24 -16 24 -9 0 -25 10 -36 23 -13 15 -21 18 -24 10
-8 -19 -28 -16 -42 7 -7 11 -19 20 -26 20 -8 0 -17 6 -20 13 -5 10 -7 10 -12
0 -7 -15 -34 -17 -34 -3 0 18 -34 45 -73 57 -20 6 -37 7 -37 2 0 -5 -7 -9 -15
-9 -9 0 -18 -12 -21 -30 -7 -33 -14 -36 -32 -18 -9 9 -12 6 -12 -16 0 -28 -10
-42 -47 -63 -14 -8 -24 -9 -28 -3 -9 14 -65 12 -65 -2 0 -9 -3 -9 -12 0 -10
10 -10 15 2 23 13 9 13 10 0 7 -8 -3 -21 -26 -29 -52 -18 -57 -39 -58 -56 -1
l-12 40 -12 -45 c-20 -75 -19 -74 -36 -60 -8 7 -15 24 -16 39 0 14 -3 21 -5
14 -3 -7 -12 -9 -20 -6 -7 3 -17 -2 -20 -11 -9 -22 -132 -23 -140 -1 -8 20
-23 19 -46 -2 -13 -11 -18 -12 -18 -3 0 8 -4 9 -12 3 -22 -18 -68 -22 -68 -7
0 22 -41 17 -47 -6 -3 -11 -12 -20 -19 -20 -8 0 -14 -7 -14 -15 0 -8 -5 -15
-11 -15 -24 0 -139 35 -139 42 0 14 -29 9 -62 -12 -18 -11 -43 -20 -55 -20
-12 0 -27 -9 -33 -20 -8 -15 -21 -20 -54 -20 -23 0 -46 -3 -50 -7 -3 -4 -17
-8 -29 -10 -12 -2 -44 -8 -72 -13 -70 -14 -147 -11 -167 7 -14 13 -17 11 -28
-21 -10 -30 -16 -36 -40 -36 -16 0 -32 4 -35 10 -8 13 -136 13 -171 0 -15 -6
-33 -18 -41 -28 -12 -16 -14 -16 -28 2 -12 16 -17 17 -30 6 -10 -8 -51 -15
-101 -18 -46 -3 -84 -8 -84 -13 0 -4 -9 -11 -21 -14 -11 -4 -18 -13 -15 -20 6
-18 -5 -27 -19 -15 -6 5 -35 10 -63 11 -29 1 -52 6 -52 10 0 7 -55 29 -74 29
-6 0 -20 -16 -30 -35 -17 -32 -21 -34 -36 -20 -9 8 -25 15 -36 14 -10 0 -14
-3 -7 -6 17 -6 -16 -41 -43 -46 -10 -1 -25 -6 -32 -11 -7 -4 -16 -5 -19 -2 -3
3 -15 0 -26 -6 -11 -6 -44 -10 -73 -9 -41 1 -56 -3 -64 -17 -9 -16 -11 -16
-24 1 -10 12 -28 17 -70 17 -31 0 -56 -3 -56 -8 0 -4 -20 -12 -45 -18 -39 -9
-45 -8 -43 5 2 12 -7 17 -35 19 -32 3 -39 0 -44 -17 -5 -18 -14 -21 -72 -23
-36 -1 -77 -1 -91 0 -14 1 -37 -2 -51 -7 -16 -6 -36 -4 -55 3 -54 22 -290 4
-318 -25 -13 -12 -76 -12 -76 1 0 20 -31 22 -50 5 -19 -17 -21 -17 -39 -1 -17
15 -20 15 -34 1 -12 -11 -38 -15 -110 -15 -69 0 -98 -4 -106 -14 -12 -15 -94
-37 -121 -33 -27 3 -115 -15 -122 -26 -5 -8 -16 -8 -40 -1 -21 7 -43 7 -61 1
-22 -7 -31 -5 -45 10 -14 16 -27 19 -80 15 -34 -2 -60 -8 -57 -13 4 -5 -1 -6
-9 -3 -9 3 -16 1 -16 -5 0 -6 -7 -11 -15 -11 -8 0 -15 -4 -15 -10 0 -5 -9 -10
-20 -10 -11 0 -20 5 -20 10 0 6 -11 10 -25 10 -14 0 -24 5 -23 12 3 13 -3 15
-57 17 -31 1 -35 4 -35 29 -1 24 -2 25 -13 10 -19 -25 -67 -35 -67 -14 0 9 -4
16 -9 16 -5 0 -16 6 -23 14 -24 23 -57 29 -64 12 -4 -10 -18 -16 -35 -16 -19
0 -29 -5 -29 -15 0 -25 -19 -17 -26 11 -9 34 1 117 15 122 6 2 11 12 11 23 0
10 5 19 11 19 7 0 22 11 35 25 24 26 54 34 54 14 0 -12 29 -43 35 -38 2 2 -1
25 -6 51 -9 49 -4 78 12 78 5 0 9 7 9 15 0 8 6 15 14 15 16 0 76 56 76 71 0 5
6 9 13 9 7 0 18 9 25 20 7 11 18 17 27 14 10 -4 15 0 15 14 0 15 14 25 58 41
31 12 77 40 102 62 25 22 57 42 73 46 15 3 27 11 27 19 0 7 24 25 53 39 28 15
61 35 73 46 11 10 27 19 35 19 8 0 33 17 57 38 24 21 82 58 130 82 48 25 95
53 104 63 10 9 20 17 23 16 12 -2 65 24 65 32 0 5 9 9 20 9 19 0 49 21 94 66
12 12 44 30 71 40 28 10 59 26 69 36 11 10 23 18 27 18 5 0 29 15 55 33 54 38
64 44 84 51 8 3 22 10 30 15 8 5 35 19 60 30 40 18 250 211 250 229 0 4 27 29
60 55 33 27 60 53 60 57 0 5 16 18 35 30 19 12 53 38 74 58 61 58 101 91 132
109 16 10 32 25 35 35 3 10 11 18 17 18 7 0 26 16 44 34 65 72 15 98 -143 74
-52 -8 -100 -10 -107 -6 -15 10 -344 0 -366 -11 -9 -4 -40 -8 -69 -9 -28 -1
-55 -3 -60 -4 -15 -3 -72 37 -72 52 0 10 -3 11 -8 4 -10 -16 -51 -36 -61 -30
-5 3 -14 -1 -21 -9 -7 -8 -19 -15 -26 -15 -8 0 -14 -4 -14 -10 0 -5 -7 -10
-15 -10 -8 0 -15 -7 -15 -15 0 -18 -1 -18 -36 -5 -18 7 -30 7 -40 -1 -7 -6
-28 -9 -46 -8 -43 4 -60 -7 -53 -34 4 -15 3 -18 -3 -9 -5 8 -12 13 -16 13 -20
-3 -36 0 -35 7 1 4 1 14 0 22 -1 13 -2 13 -11 0 -5 -8 -7 -23 -4 -32 3 -11 -2
-18 -16 -22 -11 -3 -29 -9 -40 -12 -14 -4 -20 -1 -20 10 0 9 -4 16 -10 16 -5
0 -10 -5 -10 -11 0 -7 -14 -9 -37 -7 -37 5 -83 -8 -83 -23 0 -4 -8 -5 -19 -2
-10 2 -25 -3 -34 -11 -8 -9 -23 -16 -31 -16 -9 0 -16 -8 -16 -20 0 -11 5 -20
10 -20 6 0 10 -9 10 -20 0 -25 -20 -27 -20 -2 -1 16 -1 16 -14 0 -7 -10 -27
-19 -44 -20 -18 -1 -32 -8 -32 -15 0 -8 -12 -13 -30 -13 -18 0 -33 -6 -36 -15
-4 -8 -10 -15 -15 -15 -4 0 -6 7 -2 16 5 14 3 14 -15 -1 -11 -10 -18 -24 -15
-32 8 -20 -16 -43 -43 -43 -13 0 -24 -5 -24 -11 0 -5 -4 -8 -9 -4 -5 3 -17 -2
-25 -11 -9 -8 -16 -11 -16 -6 0 13 -80 20 -82 7 0 -5 -2 -16 -2 -22 -1 -7 -19
-22 -41 -33 -30 -15 -41 -17 -47 -7 -11 18 -42 -30 -49 -78 -5 -34 -7 -37 -14
-17 -4 12 -12 22 -17 22 -14 0 -38 -27 -31 -34 4 -3 0 -6 -9 -6 -8 0 -20 -11
-26 -25 -11 -23 -13 -24 -44 -11 -19 8 -34 23 -36 34 -3 16 -13 21 -50 24 -26
2 -56 2 -66 0 -17 -5 -17 -6 -3 -17 12 -9 15 -21 11 -47 -5 -29 -10 -35 -25
-31 -15 4 -17 8 -8 19 7 9 8 14 1 14 -6 0 -13 8 -15 18 -3 9 -5 3 -6 -14 0
-18 -7 -34 -15 -37 -9 -4 -13 -1 -11 6 10 28 -116 130 -131 106 -4 -7 -21 -9
-41 -6 -30 5 -35 3 -44 -20 -5 -14 -7 -28 -4 -31 3 -3 5 0 5 6 0 7 16 12 40
12 22 0 40 -4 40 -10 0 -5 -14 -10 -30 -10 -23 0 -35 -7 -48 -28 -9 -16 -23
-27 -29 -25 -8 3 -13 -4 -13 -17 0 -19 -1 -20 -16 -6 -17 17 -54 22 -54 7 0
-5 -20 -20 -45 -32 -64 -32 -88 -57 -82 -85 4 -25 -3 -29 -63 -36 -22 -3 -23
-4 -9 -18 19 -18 4 -39 -24 -32 -10 3 -24 -3 -32 -14 -14 -17 -16 -17 -27 -3
-21 25 -56 30 -63 8 -5 -15 -16 -19 -53 -19 -33 0 -43 -3 -32 -10 22 -13 -9
-23 -60 -18 -38 3 -40 2 -40 -23 0 -21 -6 -28 -27 -34 -30 -7 -52 -31 -53 -57
0 -14 -9 -18 -39 -18 -22 0 -42 6 -45 13 -5 10 -7 10 -12 0 -3 -7 -17 -13 -30
-13 -13 0 -25 -4 -25 -10 -1 -5 -3 -14 -4 -20 -1 -5 -3 -19 -4 -29 0 -10 -7
-19 -13 -18 -46 1 -68 -5 -68 -18 0 -11 -11 -15 -40 -15 -29 0 -40 4 -40 15 0
8 -2 15 -5 15 -13 0 -75 -71 -75 -85 0 -8 -5 -15 -12 -15 -6 0 -22 -10 -35
-22 -15 -14 -27 -18 -33 -12 -15 15 -80 5 -80 -12 0 -9 -11 -14 -29 -14 -16 0
-37 -3 -45 -6 -11 -4 -29 7 -53 32 -20 22 -34 34 -30 27 4 -7 -2 -21 -15 -32
-18 -18 -19 -21 -5 -21 9 0 17 -4 17 -10 0 -5 -7 -10 -15 -10 -8 0 -22 -12
-32 -27 -24 -38 -39 -53 -54 -53 -7 0 -21 -8 -32 -17 -15 -13 -21 -15 -24 -5
-7 18 -83 16 -83 -2 0 -8 -6 -18 -12 -22 -7 -4 -10 -4 -6 1 4 4 -3 18 -17 31
-23 21 -24 24 -7 33 15 9 15 12 2 21 -24 16 -35 12 -53 -20 -10 -16 -22 -29
-27 -27 -5 1 -16 -7 -24 -18 -14 -18 -15 -18 -16 -2 0 9 -5 17 -11 17 -5 0 -8
4 -4 9 3 5 -5 13 -17 17 -13 4 -27 12 -31 18 -6 8 -10 8 -14 -1 -2 -7 -16 -13
-29 -13 -13 0 -24 -4 -24 -10 0 -5 -7 -10 -15 -10 -8 0 -14 8 -13 18 4 46 -1
52 -42 52 -37 0 -40 -2 -40 -28 0 -33 -26 -37 -54 -9 -10 9 -23 17 -29 17 -20
0 -50 -41 -39 -52 6 -6 12 1 16 18 6 22 9 25 17 13 14 -22 10 -49 -7 -49 -11
0 -15 -6 -11 -19 3 -13 -3 -22 -20 -30 -22 -10 -24 -9 -19 7 5 16 -6 25 -58
51 -35 17 -73 31 -84 31 -12 0 -24 5 -28 12 -4 6 -3 8 3 5 5 -3 17 2 25 13 15
17 15 19 -5 24 -48 13 -122 6 -155 -14 -18 -11 -30 -24 -27 -29 3 -5 -2 -8
-12 -7 -9 2 -33 0 -52 -4 -20 -3 -48 -3 -64 1 -21 6 -27 4 -28 -9 -1 -16 -2
-16 -6 0 -2 10 -10 15 -19 11 -11 -4 -14 4 -14 34 0 35 -4 41 -35 56 -19 9
-37 12 -40 7 -3 -5 -12 -7 -20 -3 -8 3 -15 0 -15 -7 0 -6 -5 -8 -10 -5 -7 4
-2 14 11 26 12 10 17 19 11 19 -7 0 -12 7 -12 15 0 11 -11 14 -45 13 -25 -1
-45 -6 -45 -10 0 -4 -7 -8 -15 -8 -8 0 -23 -9 -33 -21 -15 -15 -26 -18 -48
-13 -25 6 -26 8 -9 14 17 6 15 8 -12 14 -18 4 -33 11 -33 15 0 4 -6 8 -14 8
-8 0 -12 -6 -9 -15 5 -11 -2 -14 -35 -10 -29 2 -42 0 -42 -9 0 -10 -6 -10 -25
-1 -14 6 -25 19 -25 28 0 29 -21 37 -109 39 -72 2 -83 0 -78 -13 5 -13 -2 -16
-37 -16 -30 0 -46 5 -50 15 -3 9 -11 15 -18 14 -45 -5 -57 2 -64 36 -6 32 -9
35 -39 35 -18 0 -35 -6 -38 -12 -2 -7 -10 15 -17 50 -7 36 -18 62 -25 62 -18
0 -36 -25 -30 -41 3 -8 1 -20 -4 -28 -7 -11 -14 -10 -39 8 -25 17 -44 21 -114
21 -57 0 -78 -3 -68 -10 13 -8 12 -10 -2 -10 -10 0 -18 5 -18 10 0 6 -18 10
-40 10 -30 0 -42 5 -47 18 -9 24 -53 61 -77 64 -12 2 -23 13 -26 28 -4 19 -12
24 -34 25 -16 0 -31 6 -33 13 -5 13 11 16 67 13 l35 -2 -3 50 c-4 53 -7 56
-59 51 -18 -1 -23 4 -23 21 0 13 -12 34 -27 46 -25 22 -27 23 -37 6 -9 -16
-11 -16 -18 7 -4 15 -5 8 -2 -19 5 -35 4 -42 -7 -35 -8 5 -23 7 -34 6 -12 -2
-32 1 -45 7 -24 9 -24 9 -5 18 27 11 30 33 5 26 -11 -3 -23 -9 -26 -14 -8 -13
-44 -11 -44 2 0 7 9 9 21 6 16 -4 20 -1 17 16 -3 22 -38 38 -38 18 0 -10 -35
-51 -44 -51 -2 0 5 18 17 40 13 23 29 40 40 40 14 0 17 9 17 48 0 27 -7 57
-16 71 l-16 22 -24 -22 c-28 -26 -31 -39 -9 -39 8 0 15 -4 15 -10 0 -5 -6 -10
-14 -10 -14 0 -29 -24 -31 -47 0 -7 -4 -13 -8 -13 -4 0 -11 0 -17 0 -5 0 -10
8 -10 19 0 14 -7 18 -28 17 -25 -1 -27 -3 -18 -18 7 -13 7 -21 -1 -29 -16 -16
-83 7 -84 29 0 11 -2 12 -6 4 -2 -6 -9 -10 -14 -6 -5 3 -9 0 -9 -5 0 -14 -47
-15 -55 -2 -3 6 -40 10 -83 10 -45 0 -78 4 -80 10 -5 16 -24 13 -52 -9 -31
-24 -79 -28 -60 -5 10 12 16 13 27 4 11 -9 12 -9 7 4 -12 31 -156 43 -162 14
-4 -18 -11 -20 -54 -17 -18 1 -37 -8 -53 -24 -14 -14 -32 -26 -40 -26 -8 0
-15 -9 -15 -20 0 -25 -4 -25 -40 1 -32 25 -63 21 -100 -11 -18 -16 -25 -18
-32 -8 -6 10 -10 10 -18 -2 -6 -10 -10 -11 -10 -2 0 6 -9 12 -20 12 -11 0 -20
5 -20 11 0 8 -17 10 -50 7 -44 -4 -49 -3 -52 16 -4 27 -32 28 -36 1 -2 -16
-11 -20 -48 -21 -37 -1 -49 -6 -71 -32 -14 -18 -34 -32 -44 -32 -14 0 -19 -7
-19 -30 0 -20 -4 -28 -13 -24 -8 3 -20 -2 -27 -11 -8 -10 -30 -15 -66 -15 -30
0 -54 -4 -54 -8 0 -5 -6 -9 -12 -10 -41 -3 -67 -11 -101 -31 -40 -23 -67 -27
-67 -11 0 14 -87 13 -92 -2 -3 -7 -18 -13 -34 -13 -24 -1 -30 -7 -32 -28 -4
-35 -42 -39 -42 -4 0 29 -25 65 -37 53 -4 -5 -2 -11 5 -13 14 -5 17 -63 2 -63
-10 0 -14 14 -11 37 2 17 -60 33 -76 20 -14 -10 -47 9 -38 23 3 4 -2 14 -11
21 -13 11 -22 9 -51 -6 -36 -20 -90 -21 -107 -4 -6 5 -29 9 -52 9 -24 0 -45 4
-48 9 -8 12 -48 1 -61 -16 -6 -7 -33 -13 -63 -14 -30 -1 -60 -8 -67 -16 -8 -7
-18 -13 -23 -13 -6 0 -12 -7 -16 -15 -8 -22 -90 -19 -161 5 -32 11 -67 20 -78
20 -10 0 -45 22 -76 48 -31 27 -64 51 -73 55 -10 4 -18 14 -18 23 0 24 -29 54
-53 54 -20 0 -20 0 -1 21 16 17 16 22 4 29 -8 6 -27 10 -42 10 -16 0 -28 5
-28 10 0 6 -7 10 -15 10 -9 0 -18 6 -21 14 -3 8 -17 17 -30 20 -19 5 -24 11
-19 26 5 16 2 20 -14 20 -14 0 -21 6 -21 20 0 11 -4 20 -9 20 -5 0 -16 34 -26
75 -9 41 -23 81 -30 89 -10 10 -13 30 -10 67 2 30 2 44 -1 31 -3 -12 -10 -20
-15 -17 -11 8 -12 75 -1 75 13 0 11 34 -2 42 -8 5 -7 11 2 20 6 6 12 20 12 30
0 18 6 27 38 63 7 8 13 17 12 20 -1 20 2 25 14 25 8 0 22 7 31 16 20 21 148
36 200 24 20 -5 43 -6 49 -4 7 3 21 -4 31 -16 25 -28 95 -28 102 0 4 15 14 20
39 20 18 0 36 5 39 10 3 6 15 10 25 10 22 0 90 30 90 40 0 4 26 13 58 20 70
16 139 46 172 77 14 13 32 23 40 23 9 0 28 6 43 13 25 11 27 16 21 50 -5 30
-3 37 11 37 9 0 14 -4 10 -9 -3 -5 -1 -12 5 -16 6 -4 10 5 10 19 0 14 -5 26
-12 26 -9 0 -9 3 0 12 15 15 16 48 2 48 -5 0 -10 18 -10 40 0 33 3 40 20 40
30 0 24 13 -15 34 -19 11 -35 23 -35 28 0 5 -4 6 -10 3 -5 -3 -10 -2 -10 4 0
5 6 12 13 15 9 3 7 9 -5 19 -10 8 -18 20 -18 26 0 7 -4 9 -10 6 -5 -3 -10 2
-10 11 0 10 -3 15 -6 12 -3 -4 -14 2 -25 13 -21 21 -103 27 -114 9 -3 -6 -15
-1 -28 10 -14 14 -30 19 -47 15 -14 -3 -37 1 -52 9 -16 8 -28 11 -28 7 0 -13
-33 -8 -48 7 -8 7 -18 10 -23 7 -5 -4 -9 0 -9 8 0 23 -70 48 -117 42 -25 -3
-43 -1 -43 4 0 6 -17 13 -37 18 l-38 7 30 6 c19 4 34 2 41 -7 14 -17 29 -17
43 1 17 20 0 28 -68 31 -82 4 -144 16 -161 31 -8 7 -28 14 -44 16 -16 2 -43
15 -60 31 -17 15 -38 27 -47 27 -9 0 -19 6 -22 13 -2 7 -17 13 -32 15 -15 1
-37 12 -49 24 -12 13 -32 31 -46 40 -20 13 -21 17 -7 17 10 1 17 9 17 22 0 17
-4 20 -22 15 -45 -13 -58 -15 -58 -7 0 5 -16 25 -36 46 -33 35 -36 36 -41 16
-3 -11 -10 -21 -15 -21 -5 0 -8 6 -6 12 3 7 -1 19 -9 26 -7 7 -13 22 -13 33 0
12 -7 19 -19 19 -11 0 -21 6 -24 13 -2 7 -8 8 -13 3 -5 -5 -4 -11 4 -13 18 -7
15 -20 -8 -26 -11 -3 -20 -1 -20 4 0 5 -9 9 -20 9 -15 0 -20 -7 -20 -29 0 -21
-6 -30 -22 -35 -35 -9 -58 -7 -58 5 0 13 26 40 32 33 3 -2 3 25 0 61 -4 61 -2
69 43 157 78 155 120 213 240 333 83 82 133 119 223 167 23 12 42 26 42 30 0
4 7 8 15 8 8 0 15 4 15 8 0 4 32 19 71 32 39 14 73 28 76 32 2 5 21 8 42 8 20
0 41 4 47 9 31 30 483 45 578 20 22 -6 52 -13 65 -16 13 -2 62 -19 110 -37 47
-19 104 -39 126 -46 22 -7 63 -23 90 -36 28 -14 65 -24 83 -24 18 0 41 -4 52
-10 11 -5 29 -14 39 -20 23 -11 91 -2 91 13 0 7 4 7 12 -1 15 -15 54 -16 63
-2 3 6 15 10 25 10 10 0 22 4 25 10 9 14 -13 50 -30 50 -8 0 -15 9 -15 20 0
11 -4 20 -10 20 -16 0 -32 82 -27 137 3 29 19 76 36 110 17 32 31 64 31 71 0
6 4 12 8 12 5 0 14 11 20 25 7 16 17 23 26 19 21 -8 44 40 28 59 -6 7 -12 52
-13 100 -2 85 8 117 35 117 6 0 24 11 40 25 25 21 39 25 95 25 61 -1 72 -4
136 -45 39 -24 102 -60 140 -80 39 -19 77 -39 85 -44 25 -16 87 -41 100 -41
15 0 113 -49 120 -59 3 -5 25 -19 50 -31 25 -12 57 -31 71 -41 49 -35 55 18 8
71 -42 47 -49 69 -44 139 2 43 9 66 27 87 54 65 58 67 102 59 22 -3 49 -6 58
-6z m12772 -14 c3 -8 2 -15 -3 -15 -5 0 -14 7 -21 15 -10 12 -10 15 3 15 8 0
17 -7 21 -15z m-14177 -51 c-3 -3 -12 -4 -19 -1 -8 3 -5 6 6 6 11 1 17 -2 13
-5z m20 -40 c-3 -3 -12 -4 -19 -1 -8 3 -5 6 6 6 11 1 17 -2 13 -5z m14282
-1216 c0 -7 -4 -22 -9 -33 -7 -17 -9 -15 -9 13 -1 17 4 32 9 32 6 0 10 -6 9
-12z m-16163 -303 c3 -45 -12 -54 -20 -12 -4 19 -2 33 4 35 5 2 7 9 3 15 -3 7
-2 8 3 4 5 -5 9 -24 10 -42z m1371 -811 c-3 -3 -12 -4 -19 -1 -8 3 -5 6 6 6
11 1 17 -2 13 -5z m14633 -33 c0 -55 -16 -60 -19 -5 -1 25 2 44 9 44 5 0 10
-18 10 -39z m20 -193 c0 -5 -9 -8 -20 -8 -16 0 -20 7 -20 33 l0 32 20 -25 c11
-14 20 -28 20 -32z m-6100 -78 c0 -5 -5 -10 -11 -10 -5 0 -7 5 -4 10 3 6 8 10
11 10 2 0 4 -4 4 -10z m-9480 -20 c0 -5 -4 -10 -10 -10 -5 0 -10 5 -10 10 0 6
5 10 10 10 6 0 10 -4 10 -10z m7890 -540 c12 -8 11 -10 -7 -10 -13 0 -23 5
-23 10 0 13 11 13 30 0z m-5293 -37 c-16 -16 -17 -16 -17 3 0 11 3 24 7 27 4
4 11 3 17 -3 7 -7 5 -16 -7 -27z m387 12 c-4 -8 -10 -15 -14 -15 -4 0 -10 7
-14 15 -4 10 1 15 14 15 13 0 18 -5 14 -15z m5036 -15 c0 -5 -5 -10 -11 -10
-5 0 -7 5 -4 10 3 6 8 10 11 10 2 0 4 -4 4 -10z m7860 -216 c0 -8 -7 -14 -16
-14 -13 0 -14 3 -5 13 6 8 7 18 3 22 -4 5 -1 5 6 1 6 -4 12 -14 12 -22z
m-11297 -333 c-6 -3 -13 -13 -16 -21 -4 -11 -6 -11 -6 4 -1 15 -7 17 -31 14
-23 -4 -30 -1 -30 12 0 14 7 16 35 13 24 -2 35 1 35 9 0 7 5 5 11 -6 7 -12 8
-21 2 -25z m1147 -228 c-1 -5 -11 -21 -24 -37 l-24 -29 12 37 c6 20 17 36 23
36 7 0 13 -3 13 -7z m50 -3 c0 -5 -5 -10 -11 -10 -5 0 -7 5 -4 10 3 6 8 10 11
10 2 0 4 -4 4 -10z m8855 -260 c-3 -5 -12 -10 -18 -10 -7 0 -6 4 3 10 19 12
23 12 15 0z m172 -16 c-3 -3 -12 -4 -19 -1 -8 3 -5 6 6 6 11 1 17 -2 13 -5z
m-17 -44 c0 -5 -4 -10 -10 -10 -5 0 -10 5 -10 10 0 6 5 10 10 10 6 0 10 -4 10
-10z"/>
<path d="M10115 19782 c-73 -33 -109 -43 -209 -57 -64 -9 -106 -10 -117 -4
-25 13 -86 11 -173 -5 -80 -16 -116 -30 -129 -52 -4 -8 -19 -14 -32 -14 -14 0
-25 -6 -25 -13 0 -15 -40 -42 -57 -39 -17 4 -17 -15 -1 -20 7 -3 0 -13 -17
-24 -17 -10 -32 -21 -35 -24 -3 -3 -25 -11 -50 -18 -25 -7 -70 -20 -100 -28
-30 -9 -64 -17 -75 -19 -11 -2 -38 -12 -60 -24 -21 -12 -48 -21 -60 -21 -11
-1 -31 -7 -44 -14 -13 -7 -32 -11 -43 -8 -10 2 -18 0 -18 -6 0 -5 -23 -8 -52
-7 -29 2 -64 -3 -78 -9 -14 -7 -43 -14 -65 -15 -22 -2 -44 -9 -48 -17 -7 -12
-12 -12 -37 1 -21 11 -35 12 -47 6 -32 -17 -85 -31 -95 -25 -5 3 -7 16 -4 28
3 11 1 28 -5 36 -8 13 -12 11 -29 -9 -11 -13 -20 -29 -20 -36 0 -7 -7 -18 -15
-25 -23 -19 -18 -40 10 -40 14 0 25 -4 25 -9 0 -15 -18 -22 -22 -10 -5 14 -58
-32 -58 -50 0 -6 -4 -11 -10 -11 -5 0 -10 -6 -10 -14 0 -8 -9 -18 -20 -21 -11
-3 -20 -11 -20 -16 0 -6 -4 -8 -8 -5 -11 7 -24 -4 -45 -36 l-17 -27 40 -22
c22 -13 40 -28 40 -35 0 -16 32 -34 61 -34 16 0 20 -5 16 -20 -3 -10 1 -24 8
-30 7 -6 15 -20 18 -30 4 -15 0 -20 -14 -20 -10 0 -18 -5 -17 -12 2 -7 -7 -17
-19 -23 -13 -5 -23 -18 -23 -28 0 -15 5 -17 38 -11 20 4 40 11 43 17 11 15 79
-14 79 -35 0 -17 51 -38 94 -38 19 0 66 -43 66 -61 0 -5 8 -9 18 -9 10 0 41
-11 68 -25 27 -14 59 -25 72 -25 12 0 25 -7 28 -15 3 -8 16 -17 27 -21 12 -3
30 -13 40 -22 20 -18 46 -33 105 -61 23 -11 42 -25 42 -30 0 -6 7 -11 15 -11
8 0 15 -6 15 -14 0 -18 8 -23 41 -30 36 -7 59 -17 59 -27 0 -5 8 -9 18 -9 9 0
36 -7 60 -15 24 -9 82 -17 130 -19 48 -3 104 -12 124 -20 41 -17 98 -21 98 -7
0 5 15 6 34 1 22 -5 39 -4 46 4 8 8 9 6 4 -9 -6 -16 -5 -18 7 -7 16 14 49 16
49 2 0 -5 5 -10 10 -10 6 0 10 6 10 13 0 8 18 19 40 26 22 6 40 17 40 24 0 7
29 30 64 50 35 21 70 45 77 53 6 8 27 22 45 30 19 9 34 21 34 28 0 16 68 44
125 50 78 9 82 10 111 39 15 15 38 30 51 33 12 4 23 11 23 16 0 16 28 38 49
38 12 0 21 4 21 8 0 5 16 25 34 44 20 21 42 59 52 89 9 30 20 59 24 64 10 13
20 68 26 134 2 30 9 71 14 90 5 20 10 75 10 122 0 70 3 88 16 93 8 3 13 10 9
15 -3 5 -1 12 5 16 5 3 10 44 10 91 0 73 -2 84 -17 84 -15 0 -16 2 -3 10 9 6
10 10 3 10 -6 0 -19 8 -29 17 -18 19 -77 44 -106 46 -13 1 -14 5 -6 14 6 7 6
13 1 13 -5 0 -25 14 -43 30 -18 17 -44 30 -57 30 -13 0 -23 4 -23 9 0 12 -39
21 -45 11 -3 -5 -26 2 -52 15 -55 30 -85 31 -138 7z m-1675 -487 c0 -8 -4 -15
-10 -15 -5 0 -10 7 -10 15 0 8 5 15 10 15 6 0 10 -7 10 -15z"/>
<path d="M8156 18741 c-4 -7 -5 -15 -2 -18 9 -9 19 4 14 18 -4 11 -6 11 -12 0z"/>
<path d="M8791 17715 c2 -34 6 -44 17 -40 7 3 25 5 38 5 21 0 24 4 24 40 l0
40 -40 0 -41 0 2 -45z"/>
<path d="M8918 17483 c7 -3 16 -2 19 1 4 3 -2 6 -13 5 -11 0 -14 -3 -6 -6z"/>
<path d="M12480 17955 c-10 -12 -10 -15 0 -15 7 0 10 -8 7 -20 -3 -13 0 -20 9
-20 8 0 14 5 14 10 0 14 27 12 33 -2 3 -7 6 4 6 25 1 34 -1 37 -28 37 -16 0
-34 -7 -41 -15z"/>
<path d="M11670 17909 c0 -5 5 -7 10 -4 6 3 10 8 10 11 0 2 -4 4 -10 4 -5 0
-10 -5 -10 -11z"/>
<path d="M12450 17880 c0 -22 5 -40 10 -40 6 0 10 18 10 40 0 22 -4 40 -10 40
-5 0 -10 -18 -10 -40z"/>
<path d="M12450 17691 c0 -6 -6 -11 -13 -11 -9 0 -14 -12 -14 -35 0 -24 5 -35
15 -35 9 0 13 -7 9 -20 -3 -13 0 -20 9 -20 10 0 14 15 14 59 0 33 -4 63 -10
66 -5 3 -10 1 -10 -4z"/>
<path d="M10061 16481 c-7 -5 -9 -11 -5 -14 5 -3 15 1 22 9 14 16 5 18 -17 5z"/>
<path d="M15955 13130 c-18 -8 -17 -9 8 -9 15 -1 27 4 27 9 0 12 -8 12 -35 0z"/>
<path d="M7655 12930 c3 -5 8 -10 11 -10 2 0 4 5 4 10 0 6 -5 10 -11 10 -5 0
-7 -4 -4 -10z"/>
<path d="M17675 12410 c-4 -6 3 -10 14 -10 25 0 27 6 6 13 -8 4 -17 2 -20 -3z"/>
<path d="M7435 12200 c3 -5 12 -7 20 -3 21 7 19 13 -6 13 -11 0 -18 -4 -14
-10z"/>
<path d="M8260 11055 c0 -8 9 -15 20 -15 13 0 18 5 14 15 -4 8 -12 15 -20 15
-8 0 -14 -7 -14 -15z"/>
<path d="M8103 11193 c9 -2 23 -2 30 0 6 3 -1 5 -18 5 -16 0 -22 -2 -12 -5z"/>
<path d="M6522 8878 c-18 -18 -15 -36 8 -43 11 -3 20 -12 20 -19 0 -7 14 -25
30 -39 17 -15 30 -32 30 -38 0 -13 19 -32 47 -47 17 -9 22 -9 27 4 8 22 8 24
-8 24 -12 0 -27 39 -30 76 -2 17 -27 44 -41 44 -7 0 -20 10 -28 23 -14 19 -18
20 -26 7 -10 -13 -15 -7 -12 13 1 10 -3 9 -17 -5z"/>
<path d="M5660 8841 c0 -13 5 -19 14 -15 7 3 24 -8 37 -24 13 -16 45 -39 72
-51 26 -13 47 -28 47 -35 0 -6 14 -17 31 -23 17 -7 33 -21 36 -32 4 -14 14
-21 30 -21 21 0 23 3 17 23 -3 12 -13 29 -20 38 -8 8 -14 20 -14 25 0 5 -12
20 -25 33 -14 13 -25 27 -25 32 0 5 -7 9 -15 9 -8 0 -15 4 -15 10 0 5 -17 12
-37 16 -21 4 -40 10 -43 15 -3 4 -24 10 -48 14 -38 5 -42 4 -42 -14z"/>
<path d="M4135 7450 c-3 -5 -1 -10 4 -10 6 0 11 5 11 10 0 6 -2 10 -4 10 -3 0
-8 -4 -11 -10z"/>
<path d="M19013 7185 c-9 -26 4 -28 26 -6 21 21 21 21 1 21 -11 0 -23 -7 -27
-15z"/>
<path d="M19001 7141 c-7 -5 -22 -6 -32 -4 -10 3 -19 0 -19 -6 0 -15 57 -14
64 2 5 10 7 10 12 0 3 -7 13 -13 22 -13 15 1 14 3 -2 15 -23 17 -26 18 -45 6z"/>
<path d="M18706 6815 c-3 -8 -1 -15 4 -15 6 0 10 7 10 15 0 8 -2 15 -4 15 -2
0 -6 -7 -10 -15z"/>
<path d="M18774 6790 c-13 -41 -2 -70 26 -70 23 0 27 15 6 23 -8 3 -16 23 -18
44 l-4 38 -10 -35z"/>
<path d="M19010 6576 c0 -9 5 -16 10 -16 6 0 10 4 10 9 0 6 -4 13 -10 16 -5 3
-10 -1 -10 -9z"/>
<path d="M19271 6494 c0 -11 3 -14 6 -6 3 7 2 16 -1 19 -3 4 -6 -2 -5 -13z"/>
<path d="M12338 6473 c7 -3 16 -2 19 1 4 3 -2 6 -13 5 -11 0 -14 -3 -6 -6z"/>
<path d="M11940 6330 c0 -5 5 -10 10 -10 6 0 10 5 10 10 0 6 -4 10 -10 10 -5
0 -10 -4 -10 -10z"/>
<path d="M6765 6180 c-3 -6 1 -17 9 -26 15 -14 16 -13 16 10 0 26 -13 35 -25
16z"/>
<path d="M11277 6134 c-13 -13 -7 -24 14 -24 11 0 19 5 17 12 -5 14 -22 21
-31 12z"/>
<path d="M6677 6103 c-11 -11 -8 -23 6 -23 8 0 14 7 14 15 0 16 -9 19 -20 8z"/>
<path d="M7031 6064 c0 -11 3 -14 6 -6 3 7 2 16 -1 19 -3 4 -6 -2 -5 -13z"/>
<path d="M16315 6069 c-4 -6 -5 -12 -2 -15 2 -3 7 2 10 11 7 17 1 20 -8 4z"/>
<path d="M5230 5916 c0 -9 30 -14 35 -6 4 6 -3 10 -14 10 -12 0 -21 -2 -21 -4z"/>
<path d="M5095 5850 c3 -5 8 -10 11 -10 2 0 4 5 4 10 0 6 -5 10 -11 10 -5 0
-7 -4 -4 -10z"/>
<path d="M7448 5693 c12 -2 32 -2 45 0 12 2 2 4 -23 4 -25 0 -35 -2 -22 -4z"/>
<path d="M9112 5431 c2 -7 7 -12 11 -12 12 1 9 15 -3 20 -7 2 -11 -2 -8 -8z"/>
<path d="M9245 5429 c-4 -6 -5 -13 -2 -16 7 -7 27 6 27 18 0 12 -17 12 -25 -2z"/>
<path d="M9035 5360 c-3 -6 1 -7 9 -4 18 7 21 14 7 14 -6 0 -13 -4 -16 -10z"/>
<path d="M17675 5221 c-3 -5 -2 -12 3 -15 5 -3 9 1 9 9 0 17 -3 19 -12 6z"/>
<path d="M18055 5050 c-3 -5 -1 -10 4 -10 6 0 11 5 11 10 0 6 -2 10 -4 10 -3
0 -8 -4 -11 -10z"/>
<path d="M11837 4809 c7 -7 15 -10 18 -7 3 3 -2 9 -12 12 -14 6 -15 5 -6 -5z"/>
<path d="M7536 17768 c-3 -13 -6 -37 -6 -55 0 -17 -4 -35 -10 -38 -5 -3 -10
-20 -10 -36 0 -17 4 -28 9 -25 10 6 21 -16 21 -43 0 -9 5 -22 12 -29 6 -6 13
-20 14 -29 7 -44 27 -63 65 -63 33 0 42 5 64 37 41 61 31 93 -58 184 -30 31
-62 70 -71 88 -20 37 -22 38 -30 9z"/>
<path d="M7620 17425 c0 -8 4 -15 9 -15 5 0 11 7 15 15 3 9 0 15 -9 15 -8 0
-15 -7 -15 -15z"/>
<path d="M8590 13830 c0 -5 5 -10 10 -10 6 0 10 5 10 10 0 6 -4 10 -10 10 -5
0 -10 -4 -10 -10z"/>
<path d="M17208 13603 c7 -3 16 -2 19 1 4 3 -2 6 -13 5 -11 0 -14 -3 -6 -6z"/>
<path d="M5904 13271 c-52 -23 -68 -45 -27 -35 48 12 73 23 73 33 0 5 8 12 18
14 14 4 14 5 -3 6 -11 0 -39 -8 -61 -18z"/>
</g>
</svg>
